<?xml version="1.0" encoding="UTF-8"?><svg id="March_13th_Update" xmlns="http://www.w3.org/2000/svg" viewBox="0 0 954 952.9055"><defs><style>.cls-1{fill:#fff;}.cls-2{fill:#76b900;}.cls-3{fill:#bababa;}</style></defs><path class="cls-2" d="m285.2391,53.3246c24.6196-11.0054,50.2334-19.797,76.3915-26.3466,26.6801-6.6803,53.917-10.9849,81.3585-12.8312,28.0518-1.8874,56.276-1.3044,84.2236,1.7655,26.6562,2.928,53.0676,8.2703,78.8119,15.7808,25.3447,7.394,50.04,16.9271,73.7439,28.5506,2.9384,1.4409,5.8606,2.9142,8.7695,4.4138,2.6106,1.3459,5.9056.6775,7.4434-1.9517,1.4254-2.437.6694-6.0921-1.9517-7.4434-24.137-12.4434-49.3349-22.8806-75.2315-31.0598-26.4441-8.3521-53.5817-14.2567-81.0675-17.8963-28.0171-3.7099-56.3609-4.9081-84.5924-3.6144-28.5229,1.3071-56.9718,5.1494-84.8103,11.5002-27.1742,6.1993-53.7157,14.8742-79.3801,25.7339-3.0803,1.3034-6.1468,2.6386-9.2004,4.0036-2.6826,1.1992-3.3202,5.1038-1.9517,7.4434,1.6155,2.762,4.7506,3.1555,7.4434,1.9517h0Z"/><path class="cls-2" d="m868.8903,230.4919c13.1999,20.8625,24.7837,42.7354,34.5658,65.4039,4.6337,10.738,9.1038,22.4449,12.9764,33.8655,4.0337,11.8955,7.588,23.9534,10.6519,36.1347,6.1962,24.6344,10.3163,49.3557,12.3988,74.4553,2.246,27.0709,2.1799,54.3394-.2001,81.3988-2.389,27.1611-7.2307,54.096-14.3745,80.4407-.8644,3.1876-1.7648,6.3651-2.694,9.5343-.8264,2.8184,1.0008,5.9232,3.7997,6.6923,2.8815.7918,5.8626-.97,6.6923-3.7997,7.8582-26.8011,13.2894-54.2567,16.3764-82.0127,3.055-27.4679,3.7074-55.2075,1.971-82.7899-1.6415-26.075-5.3848-52.0511-11.2396-77.5144-5.6423-24.5391-13.2679-48.6196-22.7789-71.9336-9.5172-23.3293-20.7841-45.915-33.8498-67.4622-1.6075-2.6509-3.2426-5.2848-4.9002-7.9046-1.5694-2.4805-4.8442-3.472-7.4434-1.9517-2.4727,1.4463-3.5291,4.9504-1.9517,7.4434h0Z"/><polygon class="cls-2" points="939.7637 623.5794 913.9947 610.7742 915.7855 639.4936 939.7637 623.5794"/><path class="cls-2" d="m941.4112,620.7609c-8.5896-4.2684-17.1793-8.5368-25.7689-12.8052-2.0608-1.0241-5.0762.1803-4.9117,2.8185.5969,9.5731,1.1938,19.1463,1.7908,28.7194.1441,2.311,2.7166,4.2755,4.9117,2.8185,7.9927-5.3047,15.9854-10.6095,23.9782-15.9142,3.4847-2.3127.219-7.9693-3.295-5.6371-7.9927,5.3047-15.9854,10.6095-23.9782,15.9142,1.6372.9395,3.2745,1.879,4.9117,2.8185-.5969-9.5731-1.1938-19.1463-1.7908-28.7194l-4.9117,2.8185c8.5896,4.2684,17.1793,8.5368,25.7689,12.8052,3.7508,1.8639,7.0617-3.7653,3.295-5.6371Z"/><polygon class="cls-2" points="698.654 47.31 684.9447 72.6096 713.7095 71.8364 698.654 47.31"/><path class="cls-2" d="m695.8354,45.6625c-4.5698,8.4332-9.1395,16.8664-13.7093,25.2996-1.1434,2.11.2652,4.9803,2.8185,4.9117,9.5883-.2577,19.1765-.5154,28.7648-.7731,2.4116-.0648,4.1494-2.7437,2.8185-4.9117-5.0185-8.1755-10.037-16.3509-15.0555-24.5264-2.1943-3.5747-7.8432-.2989-5.6371,3.295,5.0185,8.1755,10.037,16.3509,15.0555,24.5264l2.8185-4.9117c-9.5883.2577-19.1765.5154-28.7648.7731.9395,1.6372,1.879,3.2745,2.8185,4.9117,4.5698-8.4332,9.1395-16.8664,13.7093-25.2996,2.002-3.6945-3.6326-6.9941-5.6371-3.295Z"/><polygon class="cls-2" points="265.2216 913.5955 280.1579 889.0004 251.3898 888.3587 265.2216 913.5955"/><path class="cls-2" d="m268.0402,915.243c4.9787-8.1984,9.9575-16.3968,14.9362-24.5951,1.3141-2.164-.394-4.8576-2.8185-4.9117-9.5893-.2139-19.1787-.4278-28.768-.6416-2.5415-.0567-3.9781,2.7961-2.8185,4.9117,4.6106,8.4123,9.2212,16.8245,13.8318,25.2368,2.0198,3.6853,7.6594.3948,5.6371-3.295-4.6106-8.4123-9.2212-16.8245-13.8318-25.2368l-2.8185,4.9117c9.5893.2139,19.1787.4278,28.768.6416l-2.8185-4.9117c-4.9787,8.1984-9.9575,16.3968-14.9362,24.5951-2.1865,3.6005,3.4569,6.8851,5.6371,3.295Z"/><polyline class="cls-3" points="740.2781 741.5514 209.4293 741.5514 209.4293 210.7025 740.2781 210.7025"/><polyline class="cls-2" points="688.4669 692.0256 261.2405 692.0256 261.2405 577.6884 688.4669 577.6884"/><polyline class="cls-2" points="688.4669 533.2956 261.2405 533.2956 261.2405 418.9584 688.4669 418.9584"/><polyline class="cls-2" points="688.4669 374.5656 261.2405 374.5656 261.2405 260.2284 688.4669 260.2284"/><path class="cls-1" d="m329.4526,645.8848l9.0786-23.5352h4.4043l9.1118,23.5352h-5.3125l-1.6812-4.7402h-8.9102l-1.6812,4.7402h-5.0098Zm8.1367-8.7754h6.0186l-2.9922-8.4395-3.0264,8.4395Z"/><path class="cls-1" d="m355.2412,645.8848v-23.5352h4.9092v23.5352h-4.9092Z"/><path class="cls-1" d="m381.6689,646.3555c-4.9092,0-8.0361-1.7363-9.3809-5.2109l4.1357-2.1182c.7842,2.085,2.5327,3.127,5.2451,3.127h.437c2.8467,0,4.27-.9189,4.27-2.7568v-.3369c0-.7168-.2466-1.333-.7397-1.8486s-1.1992-.8301-2.1182-.9414l-3.6646-.4375c-2.2417-.2695-3.9458-.9688-5.1108-2.1016-1.166-1.1309-1.7485-2.6729-1.7485-4.623v-.4033c0-1.3896.3584-2.5947,1.0762-3.6143.7168-1.0195,1.7314-1.8105,3.0425-2.3711,1.3115-.5596,2.8525-.8398,4.6235-.8398h.5044c2.1519,0,3.9673.4316,5.4468,1.2939,1.4795.8633,2.5439,2.1133,3.1943,3.749l-4.3037,1.8154c-.6055-1.7705-2.063-2.6562-4.3711-2.6562h-.437c-1.2104,0-2.1577.2354-2.8413.7061-.6841.4707-1.0254,1.0986-1.0254,1.8828v.3359c0,1.3682.9414,2.1758,2.8242,2.4219l3.665.4365c2.2861.2686,4.0063,1.0205,5.1611,2.2529,1.1543,1.2324,1.7314,2.8359,1.7314,4.8086v.4023c0,2.2422-.7847,3.9746-2.3535,5.1953-1.5693,1.2227-3.8223,1.832-6.7583,1.832h-.5044Z"/><path class="cls-1" d="m400.4639,646.3555c-1.9058,0-3.4185-.6094-4.5391-1.832-1.1211-1.2207-1.6812-2.9639-1.6812-5.2285v-10.7598h4.707v10.1211c0,1.166.2236,2.0684.6724,2.707.4482.6387,1.1543.958,2.1187.958h.2686c.5381,0,1.0537-.1455,1.5469-.4365.4927-.291.9019-.7461,1.2271-1.3623.3247-.6162.4878-1.4062.4878-2.3701v-9.6172h4.707v17.3496h-4.1021v-2.1514c-.5605.8525-1.2773,1.502-2.1519,1.9502-.874.4482-1.8491.6719-2.9253.6719h-.3359Z"/><path class="cls-1" d="m414.3501,652.6094v-24.0742h4.1021v2.1523c1.188-1.748,3.0146-2.623,5.4805-2.623h.2354c1.4121,0,2.6616.332,3.749.9922,1.0869.6621,1.9385,1.6367,2.5552,2.9258.6162,1.2891.9248,2.875.9248,4.7578v1.0078c0,1.8389-.3086,3.4023-.9248,4.6914-.6167,1.2891-1.4683,2.2637-2.5552,2.9248-1.0874.6611-2.3369.9912-3.749.9912h-.2354c-2.0845,0-3.71-.6934-4.8755-2.084v8.3379h-4.707Zm8.3047-10.2881h.269c1.0762,0,1.9722-.3584,2.6899-1.0762.7173-.7168,1.0762-1.8711,1.0762-3.4629v-1.1104c0-1.5908-.3589-2.75-1.0762-3.4795-.7178-.7275-1.6138-1.0928-2.6899-1.0928h-.269c-.583,0-1.1597.1514-1.7314.4541s-1.0371.7842-1.3955,1.4463c-.3589.6611-.5376,1.5518-.5376,2.6719v1.0762c0,1.0996.1846,1.9844.5547,2.6562.3696.6729.8403,1.1602,1.4121,1.4629s1.1372.4541,1.6978.4541Z"/><path class="cls-1" d="m442.2905,646.3555c-2.645,0-4.6963-.75-6.1528-2.252-1.4575-1.502-2.1855-3.6201-2.1855-6.3555v-1.0078c0-2.7344.7397-4.8643,2.2188-6.3887,1.4795-1.5244,3.519-2.2871,6.1196-2.2871h.269c2.4653,0,4.3877.7461,5.7661,2.2363,1.3789,1.4912,2.0679,3.5469,2.0679,6.1699v2.1182h-11.8018c.1567,2.668,1.3896,4.001,3.6987,4.001h.4707c1.7705,0,3.0146-.5938,3.7319-1.7812l3.396,2.252c-.6274,1.0312-1.5635,1.8379-2.8076,2.4219-1.2437.582-2.6729.873-4.2866.873h-.5044Zm-3.665-10.9268h7.1953v-.1006c0-2.332-1.0874-3.4971-3.2612-3.4971h-.269c-2.1519,0-3.374,1.1992-3.665,3.5977Z"/><path class="cls-1" d="m453.7222,645.8848v-17.3496h4.1021v2.959c.4707-1.0078,1.0645-1.7871,1.7817-2.3359s1.6924-.8242,2.9253-.8242h1.8496v4.3379h-1.6812c-.6729,0-1.334.1338-1.9839.4023-.6504.2695-1.1938.7354-1.6309,1.3965s-.6558,1.5742-.6558,2.7402v8.6738h-4.707Z"/><path class="cls-1" d="m474.4341,646.3555c-2.6006,0-4.6685-.7393-6.2031-2.2188-1.5356-1.4795-2.3032-3.6191-2.3032-6.4219v-1.0088c0-1.8369.353-3.4014,1.0591-4.6904s1.6978-2.2695,2.9756-2.9414c1.2778-.6729,2.7681-1.0098,4.4717-1.0098h.269c1.6812,0,3.0986.4043,4.2529,1.2109s1.9785,1.8721,2.4717,3.1943l-3.7993,1.6143c-.269-.583-.6445-1.0596-1.1265-1.4297-.4824-.3691-1.0815-.5547-1.7988-.5547h-.2354c-1.1431,0-2.0679.3652-2.7739,1.0928-.7061.7295-1.0591,1.8662-1.0591,3.4131v1.2109c0,1.5918.3413,2.7402,1.0254,3.4453.6836.707,1.6191,1.0596,2.8076,1.0596h.2354c.7847,0,1.4341-.168,1.9502-.5049.5156-.3359.9189-.7949,1.2104-1.3779l3.6646,1.917c-.4932,1.1426-1.334,2.0957-2.5215,2.8574-1.1885.7617-2.6226,1.1426-4.3037,1.1426h-.269Z"/><path class="cls-1" d="m492.2207,646.3555c-1.6143,0-3.0596-.3359-4.3379-1.0078-1.2773-.6729-2.2861-1.6533-3.0254-2.9424-.7402-1.2881-1.1094-2.8525-1.1094-4.6904v-1.0088c0-1.8604.3691-3.4287,1.1094-4.707.7393-1.2783,1.748-2.2529,3.0254-2.9248,1.2783-.6729,2.7236-1.0098,4.3379-1.0098h.2354c1.6143,0,3.0596.3369,4.3369,1.0098,1.2783.6719,2.2871,1.6465,3.0264,2.9248.7402,1.2783,1.1094,2.8467,1.1094,4.707v1.0088c0,1.8379-.3691,3.4023-1.1094,4.6904-.7393,1.2891-1.748,2.2695-3.0264,2.9424-1.2773.6719-2.7227,1.0078-4.3369,1.0078h-.2354Zm0-4.0342h.2354c1.0977,0,2.001-.3584,2.707-1.0762.7061-.7168,1.0586-1.8604,1.0586-3.4287v-1.2109c0-1.5684-.3525-2.7119-1.0586-3.4297-.7061-.7168-1.6094-1.0762-2.707-1.0762h-.2354c-1.0986,0-2.001.3594-2.707,1.0762-.7061.7178-1.0586,1.8613-1.0586,3.4297v1.2109c0,1.5684.3525,2.7119,1.0586,3.4287.7061.7178,1.6084,1.0762,2.707,1.0762Z"/><path class="cls-1" d="m504.3916,645.8848v-17.3496h4.1025v2.1191c.5596-.8291,1.2656-1.4688,2.1182-1.917.8516-.4482,1.8154-.6729,2.8916-.6729h.3359c2.4209,0,4.1582.9414,5.2119,2.8242.582-.8955,1.3281-1.5908,2.2354-2.084.9082-.4922,1.9443-.7402,3.1104-.7402h.3359c1.8828,0,3.3799.6113,4.4893,1.833s1.6641,2.9648,1.6641,5.2285v10.7588h-4.707v-10.1201c0-1.165-.2188-2.0674-.6562-2.7061-.4365-.6387-1.126-.959-2.0674-.959h-.2686c-.7627,0-1.4854.3311-2.1689.9922-.6846.6611-1.0254,1.7207-1.0254,3.1777v9.6152h-4.707v-10.1201c0-1.165-.2188-2.0674-.6562-2.7061-.4365-.6387-1.126-.959-2.0674-.959h-.2695c-.7617,0-1.4854.3311-2.168.9922-.6846.6611-1.0264,1.7207-1.0264,3.1777v9.6152h-4.707Z"/><path class="cls-1" d="m535.0557,652.6094v-24.0742h4.1016v2.1523c1.1885-1.748,3.0146-2.623,5.4805-2.623h.2354c1.4121,0,2.6621.332,3.749.9922,1.0869.6621,1.9385,1.6367,2.5557,2.9258.6162,1.2891.9248,2.875.9248,4.7578v1.0078c0,1.8389-.3086,3.4023-.9248,4.6914-.6172,1.2891-1.4688,2.2637-2.5557,2.9248s-2.3369.9912-3.749.9912h-.2354c-2.084,0-3.71-.6934-4.875-2.084v8.3379h-4.707Zm8.3047-10.2881h.2686c1.0762,0,1.9727-.3584,2.6904-1.0762.7168-.7168,1.0762-1.8711,1.0762-3.4629v-1.1104c0-1.5908-.3594-2.75-1.0762-3.4795-.7178-.7275-1.6143-1.0928-2.6904-1.0928h-.2686c-.583,0-1.1602.1514-1.7314.4541-.5723.3027-1.0371.7842-1.3955,1.4463-.3594.6611-.5381,1.5518-.5381,2.6719v1.0762c0,1.0996.1846,1.9844.5547,2.6562.3701.6729.8408,1.1602,1.4121,1.4629.5723.3027,1.1377.4541,1.6982.4541Z"/><path class="cls-1" d="m561.584,646.3555c-1.9062,0-3.4189-.6094-4.5391-1.832-1.1211-1.2207-1.6816-2.9639-1.6816-5.2285v-10.7598h4.707v10.1211c0,1.166.2236,2.0684.6729,2.707.4482.6387,1.1543.958,2.1182.958h.2686c.5391,0,1.0527-.1455,1.5469-.4365.4922-.291.9023-.7461,1.2266-1.3623.3262-.6162.4883-1.4062.4883-2.3701v-9.6172h4.707v17.3496h-4.1016v-2.1514c-.5605.8525-1.2773,1.502-2.1523,1.9502s-1.8496.6719-2.9248.6719h-.3359Z"/><path class="cls-1" d="m583.4727,646.0869c-2.3994,0-4.0967-.5146-5.0947-1.5459-.9971-1.0312-1.4961-2.5664-1.4961-4.6074v-7.4639h-3.6309v-3.9346h3.6309v-4.9414h4.708v4.9414h5.3457l-.5713,3.9346h-4.7744v7.2959c0,.8301.2061,1.4297.6211,1.7988.415.3701.9805.5547,1.6982.5547h3.0264v3.9678h-3.4629Z"/><path class="cls-1" d="m597.6279,646.3555c-2.6455,0-4.6963-.75-6.1533-2.252s-2.1855-3.6201-2.1855-6.3555v-1.0078c0-2.7344.7402-4.8643,2.2197-6.3887s3.5186-2.2871,6.1191-2.2871h.2686c2.4658,0,4.3887.7461,5.7666,2.2363,1.3789,1.4912,2.0684,3.5469,2.0684,6.1699v2.1182h-11.8018c.1562,2.668,1.3896,4.001,3.6982,4.001h.4707c1.7705,0,3.0146-.5938,3.7324-1.7812l3.3955,2.252c-.6279,1.0312-1.5635,1.8379-2.8076,2.4219-1.2441.582-2.6729.873-4.2871.873h-.5039Zm-3.665-10.9268h7.1953v-.1006c0-2.332-1.0869-3.4971-3.2617-3.4971h-.2686c-2.1523,0-3.374,1.1992-3.665,3.5977Z"/><path class="cls-1" d="m609.0596,645.8848v-17.3496h4.1016v2.959c.4707-1.0078,1.0645-1.7871,1.7822-2.3359s1.6924-.8242,2.9258-.8242h1.8486v4.3379h-1.6807c-.6729,0-1.334.1338-1.9844.4023-.6504.2695-1.1934.7354-1.6299,1.3965-.4375.6611-.6562,1.5742-.6562,2.7402v8.6738h-4.707Z"/><path class="cls-1" d="m305.1426,487.1553l9.0786-23.5361h4.4043l9.1118,23.5361h-5.3125l-1.6812-4.7412h-8.9102l-1.6812,4.7412h-5.0098Zm8.1367-8.7754h6.0186l-2.9922-8.4395-3.0264,8.4395Z"/><path class="cls-1" d="m330.9312,487.1553v-23.5361h4.9092v23.5361h-4.9092Z"/><path class="cls-1" d="m349.8271,487.1553v-23.5361h8.9102c1.8159,0,3.3901.3086,4.7241.9248,1.3335.6162,2.3647,1.4912,3.0933,2.6221.728,1.1328,1.0928,2.4941,1.0928,4.0859v.6387c0,2.4434-.8066,4.332-2.4209,5.665-1.6138,1.334-3.7773,2.001-6.4893,2.001h-4.001v7.5986h-4.9092Zm4.9092-11.835h3.8667c1.165,0,2.146-.2578,2.9419-.7734.7954-.5156,1.1938-1.3672,1.1938-2.5557v-.8408c0-1.1426-.3984-1.9775-1.1938-2.5039-.7959-.5273-1.7769-.791-2.9419-.791h-3.8667v7.4648Z"/><path class="cls-1" d="m370.2363,487.1553v-24.5449h4.707v24.5449h-4.707Z"/><path class="cls-1" d="m384.3237,487.626c-1.8608,0-3.3008-.46-4.3203-1.3779-1.0205-.9199-1.5303-2.208-1.5303-3.8672,0-1.5234.4653-2.7461,1.3955-3.665.9297-.9189,2.2808-1.4902,4.0518-1.7148l5.4468-.7061v-.1348c0-2.0391-.9302-3.0586-2.7905-3.0586h-.3364c-.8296,0-1.5244.1504-2.0845.4531-.5605.3027-1.0312.8359-1.4121,1.5977l-3.5977-1.8828c.5151-1.1885,1.3838-2.1406,2.6055-2.8584s2.7065-1.0762,4.4551-1.0762h.5044c4.9092,0,7.3633,2.2979,7.3633,6.8936v10.9268h-4.1016v-2.1855c-.5381.8291-1.2837,1.4795-2.2363,1.9502s-2.0342.7061-3.2446.7061h-.168Zm5.0435-8.1709l-3.5977.5049c-1.0312.1572-1.7485.376-2.1519.6553-.4033.2812-.6055.7344-.6055,1.3623,0,.6045.23,1.0811.6895,1.4287.459.3477,1.0703.5215,1.8325.5215h.269c1.1206,0,1.9946-.3242,2.6226-.9746.6274-.6504.9414-1.5352.9414-2.6562v-.8418Z"/><path class="cls-1" d="m406.0771,487.3574c-2.3989,0-4.0967-.5156-5.0938-1.5469-.9976-1.0312-1.4961-2.5664-1.4961-4.6064v-7.4639h-3.6313v-3.9346h3.6313v-4.9424h4.707v4.9424h5.3462l-.5718,3.9346h-4.7744v7.2949c0,.8301.207,1.4297.6221,1.7988.4146.3711.9805.5557,1.6978.5557h3.0264v3.9678h-3.4634Z"/><path class="cls-1" d="m414.752,487.1553v-13.415h-3.4634v-3.9346h3.4634v-.7393c0-2.1523.5381-3.7998,1.6138-4.9434,1.0762-1.1426,2.8691-1.7148,5.3799-1.7148h2.9922v3.9688h-2.8242c-.874,0-1.502.2178-1.8828.6543-.3813.4375-.5718,1.0596-.5718,1.8672v.9072h5.2788l-.5713,3.9346h-4.7075v13.415h-4.707Z"/><path class="cls-1" d="m434.354,487.626c-1.6138,0-3.0596-.3369-4.3374-1.0088-1.2773-.6719-2.2861-1.6523-3.0259-2.9414s-1.1094-2.8525-1.1094-4.6914v-1.0078c0-1.8613.3696-3.4297,1.1094-4.707.7397-1.2783,1.7485-2.2539,3.0259-2.9258,1.2778-.6719,2.7236-1.0088,4.3374-1.0088h.2354c1.6143,0,3.0601.3369,4.3374,1.0088,1.2778.6719,2.2866,1.6475,3.0264,2.9258.7397,1.2773,1.1094,2.8457,1.1094,4.707v1.0078c0,1.8389-.3696,3.4023-1.1094,4.6914s-1.7485,2.2695-3.0264,2.9414c-1.2773.6719-2.7231,1.0088-4.3374,1.0088h-.2354Zm0-4.0342h.2354c1.0981,0,2.001-.3594,2.707-1.0762s1.0591-1.8613,1.0591-3.4297v-1.2109c0-1.5684-.353-2.7109-1.0591-3.4297-.7061-.7168-1.6089-1.0762-2.707-1.0762h-.2354c-1.0981,0-2.0005.3594-2.7065,1.0762-.7061.7188-1.0591,1.8613-1.0591,3.4297v1.2109c0,1.5684.353,2.7129,1.0591,3.4297s1.6084,1.0762,2.7065,1.0762Z"/><path class="cls-1" d="m446.5254,487.1553v-17.3496h4.1021v2.959c.4707-1.0088,1.0645-1.7871,1.7817-2.3369.7173-.5488,1.6924-.8242,2.9253-.8242h1.8496v4.3379h-1.6812c-.6729,0-1.334.1348-1.9839.4033-.6504.2686-1.1938.7354-1.6309,1.3955-.437.6621-.6558,1.5752-.6558,2.7402v8.6748h-4.707Z"/><path class="cls-1" d="m459.6387,487.1553v-17.3496h4.1021v2.1182c.5601-.8281,1.2661-1.4678,2.1182-1.916.8516-.4482,1.8154-.6729,2.8916-.6729h.3364c2.4204,0,4.1577.9414,5.2114,2.8242.5825-.8955,1.3281-1.5908,2.2358-2.085.9077-.4922,1.9443-.7393,3.1104-.7393h.3359c1.8828,0,3.3789.6113,4.4883,1.833s1.665,2.9648,1.665,5.2285v10.7588h-4.708v-10.1201c0-1.166-.2178-2.0684-.6553-2.707s-1.126-.959-2.0674-.959h-.2695c-.7622,0-1.4849.332-2.1685.9922-.6841.6621-1.0254,1.7207-1.0254,3.1777v9.6162h-4.707v-10.1201c0-1.166-.2188-2.0684-.6558-2.707s-1.1265-.959-2.0679-.959h-.269c-.7622,0-1.4854.332-2.1685.9922-.6841.6621-1.0259,1.7207-1.0259,3.1777v9.6162h-4.707Z"/><path class="cls-1" d="m506.8447,487.626c-4.9092,0-8.0361-1.7373-9.3809-5.2119l4.1357-2.1172c.7842,2.084,2.5322,3.127,5.2451,3.127h.4365c2.8467,0,4.2705-.9199,4.2705-2.7578v-.3359c0-.7168-.2471-1.334-.7402-1.8496s-1.1992-.8291-2.1182-.9414l-3.6641-.4375c-2.2422-.2686-3.9463-.9688-5.1113-2.1016-1.166-1.1309-1.748-2.6719-1.748-4.623v-.4023c0-1.3906.3584-2.5947,1.0762-3.6152.7168-1.0195,1.7314-1.8096,3.042-2.3711,1.3115-.5586,2.8525-.8398,4.624-.8398h.5039c2.1523,0,3.9678.4316,5.4473,1.2949s2.5439,2.1133,3.1943,3.748l-4.3037,1.8164c-.6055-1.7705-2.0635-2.6562-4.3711-2.6562h-.4375c-1.21,0-2.1572.2344-2.8408.7061-.6846.4707-1.0254,1.0986-1.0254,1.8828v.3359c0,1.3682.9414,2.1748,2.8242,2.4209l3.665.4375c2.2861.2686,4.0059,1.0195,5.1611,2.252,1.1543,1.2334,1.7314,2.8359,1.7314,4.8086v.4033c0,2.2412-.7852,3.9736-2.3535,5.1943-1.5693,1.2227-3.8223,1.833-6.7588,1.833h-.5039Z"/><path class="cls-1" d="m527.1855,487.626c-1.6133,0-3.0596-.3369-4.3369-1.0088s-2.2861-1.6523-3.0264-2.9414c-.7393-1.2891-1.1094-2.8525-1.1094-4.6914v-1.0078c0-1.8613.3701-3.4297,1.1094-4.707.7402-1.2783,1.749-2.2539,3.0264-2.9258s2.7236-1.0088,4.3369-1.0088h.2354c1.6143,0,3.0605.3369,4.3379,1.0088s2.2861,1.6475,3.0264,2.9258c.7393,1.2773,1.1094,2.8457,1.1094,4.707v1.0078c0,1.8389-.3701,3.4023-1.1094,4.6914-.7402,1.2891-1.749,2.2695-3.0264,2.9414s-2.7236,1.0088-4.3379,1.0088h-.2354Zm0-4.0342h.2354c1.0986,0,2.001-.3594,2.707-1.0762s1.0596-1.8613,1.0596-3.4297v-1.2109c0-1.5684-.3535-2.7109-1.0596-3.4297-.7061-.7168-1.6084-1.0762-2.707-1.0762h-.2354c-1.0977,0-2,.3594-2.7061,1.0762-.7061.7188-1.0596,1.8613-1.0596,3.4297v1.2109c0,1.5684.3535,2.7129,1.0596,3.4297s1.6084,1.0762,2.7061,1.0762Z"/><path class="cls-1" d="m540.9717,487.1553v-13.415h-3.4639v-3.9346h3.4639v-.7393c0-2.1523.5381-3.7998,1.6133-4.9434,1.0762-1.1426,2.8691-1.7148,5.3799-1.7148h2.9922v3.9688h-2.8242c-.874,0-1.502.2178-1.8828.6543-.3809.4375-.5713,1.0596-.5713,1.8672v.9072h5.2783l-.5713,3.9346h-4.707v13.415h-4.707Z"/><path class="cls-1" d="m562.6904,487.3574c-2.3984,0-4.0957-.5156-5.0928-1.5469-.998-1.0312-1.4961-2.5664-1.4961-4.6064v-7.4639h-3.6318v-3.9346h3.6318v-4.9424h4.707v4.9424h5.3457l-.5713,3.9346h-4.7744v7.2949c0,.8301.207,1.4297.6221,1.7988.4141.3711.9805.5557,1.6973.5557h3.0264v3.9678h-3.4639Z"/><path class="cls-1" d="m568.3066,469.8057h4.9756l2.8916,11.4658,3.1611-11.4658h4.1689l3.0938,11.1963,2.8916-11.1963h4.6729l-5.3125,17.3496h-4.2695l-3.3291-11.6006-3.3623,11.6006h-4.2695l-5.3125-17.3496Z"/><path class="cls-1" d="m601.2568,487.626c-1.8604,0-3.3008-.46-4.3203-1.3779-1.0205-.9199-1.5303-2.208-1.5303-3.8672,0-1.5234.4648-2.7461,1.3955-3.665.9297-.9189,2.2803-1.4902,4.0518-1.7148l5.4473-.7061v-.1348c0-2.0391-.9307-3.0586-2.791-3.0586h-.3359c-.8301,0-1.5254.1504-2.085.4531-.5605.3027-1.0312.8359-1.4121,1.5977l-3.5977-1.8828c.5156-1.1885,1.3838-2.1406,2.6055-2.8584s2.707-1.0762,4.4551-1.0762h.5049c4.9082,0,7.3633,2.2979,7.3633,6.8936v10.9268h-4.1025v-2.1855c-.5381.8291-1.2832,1.4795-2.2354,1.9502-.9531.4707-2.0342.7061-3.2451.7061h-.168Zm5.0439-8.1709l-3.5977.5049c-1.0322.1572-1.749.376-2.1523.6553-.4033.2812-.6055.7344-.6055,1.3623,0,.6045.2295,1.0811.6895,1.4287.459.3477,1.0703.5215,1.832.5215h.2695c1.1201,0,1.9951-.3242,2.6221-.9746.6279-.6504.9424-1.5352.9424-2.6562v-.8418Z"/><path class="cls-1" d="m615.1768,487.1553v-17.3496h4.1016v2.959c.4707-1.0088,1.0645-1.7871,1.7822-2.3369.7178-.5488,1.6924-.8242,2.9258-.8242h1.8486v4.3379h-1.6807c-.6729,0-1.334.1348-1.9844.4033s-1.1934.7354-1.6299,1.3955c-.4375.6621-.6562,1.5752-.6562,2.7402v8.6748h-4.707Z"/><path class="cls-1" d="m635.7207,487.626c-2.6455,0-4.6963-.751-6.1533-2.2529s-2.1855-3.6191-2.1855-6.3545v-1.0088c0-2.7344.7402-4.8633,2.2197-6.3887,1.4795-1.5234,3.5186-2.2861,6.1191-2.2861h.2686c2.4658,0,4.3887.7451,5.7666,2.2354,1.3789,1.4922,2.0684,3.5479,2.0684,6.1699v2.1191h-11.8018c.1562,2.668,1.3896,4.001,3.6982,4.001h.4707c1.7705,0,3.0146-.5938,3.7324-1.7822l3.3955,2.2529c-.6279,1.0312-1.5635,1.8379-2.8076,2.4209-1.2441.582-2.6729.874-4.2871.874h-.5039Zm-3.665-10.9268h7.1953v-.1016c0-2.3311-1.0869-3.4961-3.2617-3.4961h-.2686c-2.1523,0-3.374,1.1992-3.665,3.5977Z"/><path class="cls-1" d="m289.9302,330.2295l9.0786-23.5361h4.4043l9.1118,23.5361h-5.3125l-1.6812-4.7412h-8.9102l-1.6812,4.7412h-5.0098Zm8.1367-8.7754h6.0186l-2.9922-8.4395-3.0264,8.4395Z"/><path class="cls-1" d="m315.7188,330.2295v-23.5361h4.9092v23.5361h-4.9092Z"/><path class="cls-1" d="m334.6147,330.2295v-23.5361h6.1196l6.7246,17.0469,6.7246-17.0469h5.9512v23.5361h-4.6733v-15.8701l-6.3213,15.8701h-3.5303l-6.3213-15.8701v15.8701h-4.6738Z"/><path class="cls-1" d="m372.6758,330.7002c-1.6138,0-3.0596-.3369-4.3374-1.0088-1.2773-.6719-2.2861-1.6523-3.0259-2.9414s-1.1094-2.8525-1.1094-4.6914v-1.0078c0-1.8613.3696-3.4297,1.1094-4.707.7397-1.2783,1.7485-2.2539,3.0259-2.9258,1.2778-.6719,2.7236-1.0088,4.3374-1.0088h.2354c1.6143,0,3.0601.3369,4.3374,1.0088,1.2778.6719,2.2866,1.6475,3.0264,2.9258.7397,1.2773,1.1094,2.8457,1.1094,4.707v1.0078c0,1.8389-.3696,3.4023-1.1094,4.6914s-1.7485,2.2695-3.0264,2.9414c-1.2773.6719-2.7231,1.0088-4.3374,1.0088h-.2354Zm0-4.0342h.2354c1.0981,0,2.001-.3594,2.707-1.0762s1.0591-1.8613,1.0591-3.4297v-1.2109c0-1.5684-.353-2.7109-1.0591-3.4297-.7061-.7168-1.6089-1.0762-2.707-1.0762h-.2354c-1.0981,0-2.0005.3594-2.7065,1.0762-.7061.7188-1.0591,1.8613-1.0591,3.4297v1.2109c0,1.5684.353,2.7129,1.0591,3.4297s1.6084,1.0762,2.7065,1.0762Z"/><path class="cls-1" d="m391.1685,330.7002c-1.3901,0-2.6343-.3311-3.7324-.9912-1.0986-.6621-1.9561-1.6426-2.5723-2.9434-.6167-1.2988-.9243-2.8789-.9243-4.7402v-1.0088c0-1.8604.3076-3.4287.9243-4.707.6162-1.2783,1.4736-2.2471,2.5723-2.9082,1.0981-.6611,2.3423-.9922,3.7324-.9922h.2354c2.0845,0,3.7095.6953,4.875,2.085v-8.8096h4.7075v24.5449h-4.1021v-2.1514c-1.1885,1.748-3.0151,2.6221-5.4805,2.6221h-.2354Zm1.2437-4.0342h.269c.6055,0,1.188-.1523,1.7485-.4551.5601-.3027,1.0195-.7891,1.3784-1.4619.3584-.6729.5381-1.5576.5381-2.6562v-1.0762c0-1.0977-.1851-1.9834-.5547-2.6562-.3701-.6729-.8354-1.1592-1.3955-1.4619-.5605-.3027-1.1323-.4551-1.7148-.4551h-.269c-1.0757,0-1.9727.3594-2.6895,1.0762-.7178.7188-1.0762,1.8721-1.0762,3.4639v1.1094c0,1.5918.3584,2.752,1.0762,3.4795.7168.7285,1.6138,1.0938,2.6895,1.0938Z"/><path class="cls-1" d="m412.7876,330.7002c-2.645,0-4.6963-.751-6.1528-2.2529-1.4575-1.502-2.1855-3.6191-2.1855-6.3545v-1.0088c0-2.7344.7397-4.8633,2.2188-6.3887,1.4795-1.5234,3.519-2.2861,6.1196-2.2861h.269c2.4653,0,4.3877.7451,5.7661,2.2354,1.3789,1.4922,2.0679,3.5479,2.0679,6.1699v2.1191h-11.8018c.1567,2.668,1.3896,4.001,3.6987,4.001h.4707c1.7705,0,3.0146-.5938,3.7319-1.7822l3.396,2.2529c-.6274,1.0312-1.5635,1.8379-2.8076,2.4209-1.2437.582-2.6729.874-4.2866.874h-.5044Zm-3.665-10.9268h7.1953v-.1016c0-2.3311-1.0874-3.4961-3.2612-3.4961h-.269c-2.1519,0-3.374,1.1992-3.665,3.5977Z"/><path class="cls-1" d="m424.2192,330.2295v-24.5449h4.707v24.5449h-4.707Z"/><path class="cls-1" d="m439.7524,330.7002c-4.0347,0-6.5791-1.3223-7.6323-3.9678l3.665-1.8496c.3135.6729.7842,1.1719,1.4121,1.4971.627.3252,1.4902.4873,2.5889.4873h.437c1.9277,0,2.8916-.5039,2.8916-1.5137v-.1338c0-.8516-.5605-1.3564-1.6812-1.5127l-3.4966-.4707c-1.7041-.2461-3.0093-.8018-3.9175-1.6641-.9077-.8633-1.3613-2.0234-1.3613-3.4805v-.3359c0-1.6592.6328-2.9648,1.8994-3.918,1.2661-.9521,2.9531-1.4287,5.0605-1.4287h.5039c1.7485,0,3.228.3428,4.4385,1.0254,1.2104.6846,2.0845,1.6533,2.6226,2.9092l-3.7319,1.6465c-.5381-1.1641-1.6592-1.748-3.3623-1.748h-.4375c-1.6362,0-2.4541.4824-2.4541,1.4453v.1348c0,.3594.1226.6445.3696.8574.2466.2129.6499.3652,1.2104.4541l3.6313.5049c1.6812.2246,2.9756.8125,3.8833,1.7646.9082.9531,1.3618,2.1572,1.3618,3.6143v.3359c0,1.7715-.6279,3.1055-1.8828,4.002-1.2559.8965-3.0933,1.3447-5.5142,1.3447h-.5044Z"/><path class="cls-1" d="m464.1626,330.7002c-1.8608,0-3.3008-.46-4.3203-1.3779-1.0205-.9199-1.5303-2.208-1.5303-3.8672,0-1.5234.4653-2.7461,1.3955-3.665.9297-.9189,2.2808-1.4902,4.0518-1.7148l5.4468-.7061v-.1348c0-2.0391-.9302-3.0586-2.7905-3.0586h-.3364c-.8296,0-1.5244.1504-2.0845.4531-.5605.3027-1.0312.8359-1.4121,1.5977l-3.5977-1.8828c.5151-1.1885,1.3838-2.1406,2.6055-2.8584s2.7065-1.0762,4.4551-1.0762h.5044c4.9092,0,7.3633,2.2979,7.3633,6.8936v10.9268h-4.1016v-2.1855c-.5381.8291-1.2837,1.4795-2.2363,1.9502s-2.0342.7061-3.2446.7061h-.168Zm5.0435-8.1709l-3.5977.5049c-1.0312.1572-1.7485.376-2.1519.6553-.4033.2812-.6055.7344-.6055,1.3623,0,.6045.23,1.0811.6895,1.4287.459.3477,1.0703.5215,1.8325.5215h.269c1.1206,0,1.9946-.3242,2.6226-.9746.6274-.6504.9414-1.5352.9414-2.6562v-.8418Z"/><path class="cls-1" d="m478.082,330.2295v-17.3496h4.1016v2.1514c.583-.8281,1.3281-1.4727,2.2363-1.9326.9072-.46,1.9219-.6895,3.043-.6895h.3359c1.9727,0,3.5352.6113,4.6904,1.833,1.1543,1.2217,1.7314,2.9648,1.7314,5.2285v10.7588h-4.707v-10.1201c0-1.166-.2412-2.0684-.7227-2.707-.4824-.6387-1.2393-.959-2.2695-.959h-.2695c-.5605,0-1.1045.1465-1.6309.4375-.5264.292-.9639.7402-1.3105,1.3457-.3486.6045-.5215,1.4004-.5215,2.3867v9.6162h-4.707Z"/><path class="cls-1" d="m504.7109,330.7002c-1.3896,0-2.6338-.3311-3.7324-.9912-1.0986-.6621-1.9561-1.6426-2.5723-2.9434-.6162-1.2988-.9238-2.8789-.9238-4.7402v-1.0088c0-1.8604.3076-3.4287.9238-4.707s1.4736-2.2471,2.5723-2.9082,2.3428-.9922,3.7324-.9922h.2354c2.085,0,3.71.6953,4.875,2.085v-8.8096h4.708v24.5449h-4.1025v-2.1514c-1.1885,1.748-3.0146,2.6221-5.4805,2.6221h-.2354Zm1.2441-4.0342h.2686c.6055,0,1.1885-.1523,1.749-.4551.5596-.3027,1.0195-.7891,1.3779-1.4619s.5381-1.5576.5381-2.6562v-1.0762c0-1.0977-.1846-1.9834-.5547-2.6562s-.835-1.1592-1.3955-1.4619-1.1318-.4551-1.7148-.4551h-.2686c-1.0762,0-1.9727.3594-2.6895,1.0762-.7178.7188-1.0762,1.8721-1.0762,3.4639v1.1094c0,1.5918.3584,2.752,1.0762,3.4795.7168.7285,1.6133,1.0938,2.6895,1.0938Z"/><path class="cls-1" d="m535.4424,330.7002c-4.9092,0-8.0361-1.7373-9.3809-5.2119l4.1357-2.1172c.7842,2.084,2.5322,3.127,5.2451,3.127h.4365c2.8467,0,4.2705-.9199,4.2705-2.7578v-.3359c0-.7168-.2471-1.334-.7402-1.8496s-1.1992-.8291-2.1182-.9414l-3.6641-.4375c-2.2422-.2686-3.9463-.9688-5.1113-2.1016-1.166-1.1309-1.748-2.6719-1.748-4.623v-.4023c0-1.3906.3584-2.5947,1.0762-3.6152.7168-1.0195,1.7314-1.8096,3.042-2.3711,1.3115-.5586,2.8525-.8398,4.624-.8398h.5039c2.1523,0,3.9678.4316,5.4473,1.2949s2.5439,2.1133,3.1943,3.748l-4.3037,1.8164c-.6055-1.7705-2.0635-2.6562-4.3711-2.6562h-.4375c-1.21,0-2.1572.2344-2.8408.7061-.6846.4707-1.0254,1.0986-1.0254,1.8828v.3359c0,1.3682.9414,2.1748,2.8242,2.4209l3.665.4375c2.2861.2686,4.0059,1.0195,5.1611,2.252,1.1543,1.2334,1.7314,2.8359,1.7314,4.8086v.4033c0,2.2412-.7852,3.9736-2.3535,5.1943-1.5693,1.2227-3.8223,1.833-6.7588,1.833h-.5039Z"/><path class="cls-1" d="m555.6494,330.7002c-2.6455,0-4.6963-.751-6.1533-2.2529s-2.1855-3.6191-2.1855-6.3545v-1.0088c0-2.7344.7402-4.8633,2.2188-6.3887,1.4795-1.5234,3.5195-2.2861,6.1201-2.2861h.2686c2.4658,0,4.3877.7451,5.7666,2.2354,1.3789,1.4922,2.0684,3.5479,2.0684,6.1699v2.1191h-11.8027c.1572,2.668,1.3896,4.001,3.6992,4.001h.4707c1.7705,0,3.0146-.5938,3.7314-1.7822l3.3955,2.2529c-.627,1.0312-1.5625,1.8379-2.8066,2.4209-1.2441.582-2.6729.874-4.2871.874h-.5039Zm-3.665-10.9268h7.1953v-.1016c0-2.3311-1.0879-3.4961-3.2617-3.4961h-.2686c-2.1523,0-3.374,1.1992-3.665,3.5977Z"/><path class="cls-1" d="m567.0801,330.2295v-17.3496h4.1016v2.959c.4707-1.0088,1.0645-1.7871,1.7822-2.3369.7178-.5488,1.6924-.8242,2.9258-.8242h1.8486v4.3379h-1.6807c-.6729,0-1.334.1348-1.9844.4033s-1.1934.7354-1.6299,1.3955c-.4375.6621-.6562,1.5752-.6562,2.7402v8.6748h-4.707Z"/><path class="cls-1" d="m585.9082,330.2295l-6.5225-17.3496h4.9756l3.7324,11.6006,3.833-11.6006h4.6738l-6.5234,17.3496h-4.1689Z"/><path class="cls-1" d="m599.0879,310.4258v-4.707h4.8418v4.707h-4.8418Zm.0674,19.8037v-17.3496h4.707v17.3496h-4.707Z"/><path class="cls-1" d="m615.832,330.7002c-2.6006,0-4.668-.7393-6.2031-2.2197-1.5361-1.4785-2.3037-3.6191-2.3037-6.4219v-1.0078c0-1.8379.3535-3.4014,1.0596-4.6914.7061-1.2881,1.6982-2.2695,2.9756-2.9414s2.7676-1.0088,4.4717-1.0088h.2695c1.6807,0,3.0986.4033,4.2529,1.21,1.1543.8076,1.9775,1.873,2.4717,3.1953l-3.7998,1.6133c-.2686-.582-.6445-1.0586-1.126-1.4287-.4824-.3701-1.082-.5557-1.7988-.5557h-.2354c-1.1436,0-2.0684.3652-2.7744,1.0938s-1.0586,1.8652-1.0586,3.4121v1.2109c0,1.5918.3408,2.7402,1.0254,3.4463.6836.7061,1.6191,1.0596,2.8076,1.0596h.2354c.7842,0,1.4336-.168,1.9502-.5049.5146-.3369.918-.7959,1.21-1.3779l3.665,1.916c-.4932,1.1426-1.334,2.0957-2.5215,2.8574-1.1885.7617-2.623,1.1436-4.3037,1.1436h-.2695Z"/><path class="cls-1" d="m633.4844,330.7002c-2.6455,0-4.6963-.751-6.1533-2.2529s-2.1855-3.6191-2.1855-6.3545v-1.0088c0-2.7344.7402-4.8633,2.2197-6.3887,1.4795-1.5234,3.5186-2.2861,6.1191-2.2861h.2686c2.4658,0,4.3887.7451,5.7666,2.2354,1.3789,1.4922,2.0684,3.5479,2.0684,6.1699v2.1191h-11.8018c.1562,2.668,1.3896,4.001,3.6982,4.001h.4707c1.7705,0,3.0146-.5938,3.7324-1.7822l3.3955,2.2529c-.6279,1.0312-1.5635,1.8379-2.8076,2.4209-1.2441.582-2.6729.874-4.2871.874h-.5039Zm-3.665-10.9268h7.1953v-.1016c0-2.3311-1.0869-3.4961-3.2617-3.4961h-.2686c-2.1523,0-3.374,1.1992-3.665,3.5977Z"/><path class="cls-1" d="m651.3721,330.7002c-4.0352,0-6.5791-1.3223-7.6328-3.9678l3.665-1.8496c.3135.6729.7842,1.1719,1.4121,1.4971.627.3252,1.4902.4873,2.5889.4873h.4375c1.9268,0,2.8916-.5039,2.8916-1.5137v-.1338c0-.8516-.5615-1.3564-1.6816-1.5127l-3.4971-.4707c-1.7031-.2461-3.0088-.8018-3.917-1.6641-.9072-.8633-1.3613-2.0234-1.3613-3.4805v-.3359c0-1.6592.6328-2.9648,1.8994-3.918,1.2666-.9521,2.9531-1.4287,5.0605-1.4287h.5039c1.749,0,3.2285.3428,4.4385,1.0254,1.21.6846,2.085,1.6533,2.623,2.9092l-3.7324,1.6465c-.5381-1.1641-1.6592-1.748-3.3623-1.748h-.4375c-1.6367,0-2.4541.4824-2.4541,1.4453v.1348c0,.3594.123.6445.3701.8574.2461.2129.6494.3652,1.21.4541l3.6309.5049c1.6816.2246,2.9766.8125,3.8838,1.7646.9082.9531,1.3623,2.1572,1.3623,3.6143v.3359c0,1.7715-.6279,3.1055-1.8838,4.002-1.2549.8965-3.0928,1.3447-5.5137,1.3447h-.5039Z"/><path class="cls-2" d="m82.2734,242.417l-18.0928-11.2896,4.3062-6.9014c1.1182-1.792,2.4062-3.0884,3.8643-3.8911,1.458-.8013,3.022-1.1309,4.6914-.9863,1.6699.144,3.375.7588,5.1152,1.8447l1.0854.6777c2.6538,1.6558,4.29,3.6763,4.9082,6.061.6187,2.3853.0947,4.9131-1.5718,7.5835l-4.3062,6.9014Zm-.7041-4.5693l2.4189-3.877c1.0859-1.7402,1.4282-3.3818,1.0269-4.9253-.4019-1.5435-1.585-2.9282-3.5493-4.1538l-1.2144-.7578c-1.9131-1.1938-3.6592-1.6367-5.2393-1.3301-1.5796.3071-2.9131,1.3306-3.999,3.0708l-2.4189,3.877,12.9751,8.0962Z"/><path class="cls-2" d="m96.5059,220.9453c-.9385,1.376-2.0049,2.2095-3.1992,2.501-1.1948.2915-2.4043.02-3.6294-.8154-1.0571-.7212-1.6953-1.6416-1.9141-2.7627-.2192-1.1201.022-2.3755.7241-3.7651l2.5029-4.9678-.1006-.0684c-1.9131-1.3047-3.4531-1.1016-4.6201.6099l-.189.2769c-.4922.7217-.771,1.4106-.8374,2.0659-.0659.6558.1089,1.3462.5234,2.0718l-2.5669,1.3838c-.626-.9922-.894-2.1035-.8057-3.3335.0894-1.23.563-2.4741,1.4214-3.7329l.2573-.3774c1.1675-1.7114,2.4863-2.7168,3.957-3.0171,1.4707-.2998,3.0366.1167,4.6978,1.2495l8.1548,5.562-1.665,2.4414-1.9634-1.3389c.4414.8667.6108,1.8174.5068,2.853-.104,1.0352-.4824,2.0312-1.1343,2.9878l-.1206.1763Zm-3.5776-8.4883l-1.8311,3.7666c-.4775.9526-.6997,1.6929-.6655,2.2192.0337.5273.3359.9854.9062,1.3745.5708.3892,1.1538.498,1.75.3267.5962-.1709,1.1401-.6172,1.6323-1.3389l.1719-.2515c.6748-.9902.9067-1.9873.6948-2.9927-.2119-1.0049-.8296-1.8564-1.853-2.5547l-.8057-.5493Z"/><path class="cls-2" d="m107.2227,205.3306c-1.1592,1.5933-2.3413,2.4663-3.5454,2.6196-1.2046.1538-2.4717-.2539-3.8018-1.2222l-6.3555-4.625-1.936,2.6602-2.2417-1.6313,1.936-2.6602-3.7197-2.707,1.9722-2.7095,3.7197,2.707,2.9937-4.1138,2.0088,1.9512-2.7607,3.7939,6.2319,4.5352c.7065.5142,1.3306.7178,1.8735.6099.543-.1069,1.0532-.4893,1.5312-1.146l1.5596-2.1431,2.291,1.667-1.7568,2.4141Z"/><path class="cls-2" d="m113.6909,197.1523c-1.022,1.3149-2.1377,2.0811-3.3481,2.2979s-2.4009-.1294-3.5718-1.0391c-1.0103-.7852-1.5903-1.7437-1.7393-2.876-.1489-1.1313.1694-2.3696.9565-3.7129l2.8062-4.8032-.0962-.0747c-1.8281-1.4204-3.3779-1.313-4.6489.3228l-.2061.2646c-.5356.6895-.8569,1.3594-.9634,2.0098s.0244,1.3506.3936,2.1001l-2.6475,1.2222c-.5635-1.0293-.7622-2.1553-.5972-3.3774.165-1.2217.7148-2.4346,1.6494-3.6372l.2808-.3608c1.271-1.6357,2.6499-2.5576,4.1362-2.7661,1.4868-.2075,3.0239.3052,4.6113,1.5386l7.7939,6.0571-1.813,2.3335-1.8765-1.458c.3867.8926.4966,1.8521.3286,2.8789-.1685,1.0269-.6074,1.9976-1.3179,2.9116l-.1309.1685Zm-3.0439-8.6934l-2.0615,3.645c-.5356.9219-.8032,1.6465-.8022,2.1743.0015.5283.2749,1.0044.8198,1.4277.5454.4238,1.1206.5688,1.7261.4351s1.1763-.5454,1.7124-1.2354l.187-.2407c.7354-.9458,1.0283-1.9268.8794-2.9434-.1494-1.0161-.7129-1.9043-1.6914-2.6646l-.7695-.5981Z"/><path class="cls-2" d="m126.2178,180.8931l-16.1025-13.9824,5.1138-5.8892c1.5845-1.8247,3.2773-2.8833,5.0781-3.1758s3.4756.2339,5.0244,1.5786l.4829.4194c1.5952,1.3853,2.3662,2.9829,2.314,4.7935-.0527,1.8105-.8711,3.6284-2.4561,5.4531l-2.8164,3.2437,5.6587,4.9136-2.2969,2.6455Zm-5.6162-9.5166l2.7568-3.1748c.8789-1.0122,1.3662-2.0073,1.4634-2.9863.0967-.978-.3154-1.8672-1.2354-2.666l-.5981-.5195c-.9048-.7856-1.835-1.062-2.7905-.8291-.9551.2334-1.8726.8555-2.7515,1.8672l-2.7563,3.1748,5.9116,5.1338Z"/><path class="cls-2" d="m138.4521,166.9849l-11.4434-10.6006,2.0083-2.168,2.168,2.0083c-.438-.9312-.6274-1.8477-.5688-2.7485.0596-.9004.5161-1.8125,1.3721-2.7363l1.0767-1.1621,2.2798,2.1118-1.0557,1.1396c-.4971.5366-.8433,1.1499-1.04,1.8398-.1963.6904-.1719,1.4189.0728,2.1855.2451.7666.792,1.5435,1.6416,2.3301l5.7661,5.3413-2.2773,2.459Z"/><path class="cls-2" d="m150.9595,154.3633c-1.5938,1.6235-3.3101,2.4224-5.1484,2.396-1.8384-.0259-3.6348-.8999-5.3887-2.6216l-.7173-.7041c-1.7251-1.6934-2.6216-3.4839-2.689-5.3721-.0679-1.8877.6738-3.6216,2.2246-5.2017l.1919-.1958c1.48-1.5073,3.1211-2.2368,4.9243-2.189,1.8027.0479,3.5015.8545,5.0957,2.4194l1.3262,1.3018-7.7471,7.8921c1.1299,1.0234,2.2012,1.5562,3.2139,1.5967,1.0132.041,1.939-.3657,2.7788-1.2212l.3198-.3262c.6406-.6523,1.0581-1.3022,1.2534-1.9507.1948-.6479.1958-1.3228.0024-2.0249l2.8379-.6299c.2827,1.0459.2461,2.1348-.1099,3.2651s-1.0386,2.2109-2.0488,3.2397l-.3198.3262Zm-9.5806-3.9399l5.4424-5.5439-.1523-.1494c-.8984-.8823-1.8076-1.3262-2.7266-1.332-.9194-.0059-1.7773.397-2.5742,1.2085l-.1709.1743c-.7827.7974-1.1655,1.6807-1.1494,2.6494.0161.9697.46,1.9673,1.3311,2.9932Z"/><path class="cls-2" d="m162.2075,151.124l-14.9082-15.7568,2.1465-2.0308,1.5703,1.6597c-.2319-.9546-.1987-1.9019.1006-2.8418.2988-.9399.8833-1.8218,1.7539-2.6455l.1328-.1255c.9297-.8794,1.9619-1.4434,3.0962-1.6924,1.1348-.2485,2.3071-.1553,3.5161.2803,1.209.436,2.3862,1.2588,3.5303,2.4683l.6914.7305c1.1304,1.1953,1.8804,2.4087,2.248,3.6396.3682,1.2314.3931,2.4033.0752,3.5151-.3184,1.1118-.9419,2.1074-1.8711,2.9868l-.1328.1255c-.7524.7119-1.5532,1.2031-2.4009,1.4746-.8481.2715-1.7007.3232-2.5581.1553l5.4443,5.7539-2.4346,2.3032Zm-.6167-11.2021l.1772-.1675c.8408-.7954,1.2764-1.7383,1.3066-2.8301.0298-1.0908-.5269-2.2412-1.6719-3.4512l-.7119-.7524c-1.1445-1.2095-2.2622-1.8296-3.3535-1.8599-1.0913-.0298-2.0571.3525-2.8979,1.1479l-.1772.168c-.5015.4746-.8584,1.0361-1.0703,1.6836-.2119.6479-.21,1.3594.0059,2.1338.2153.7749.7212,1.582,1.5166,2.4233l.6494.686c.7817.8262,1.5566,1.3721,2.3252,1.6372.7686.2656,1.4893.3105,2.1621.1353s1.2529-.4932,1.7397-.9541Z"/><path class="cls-2" d="m174.8232,131.6895c-1.2515,1.0996-2.4917,1.6416-3.7212,1.627s-2.3335-.5786-3.312-1.6924c-.8447-.9614-1.2339-2.0117-1.1675-3.1519.0664-1.1392.6123-2.2949,1.6377-3.4668l3.6597-4.1895-.0806-.0913c-1.5283-1.7393-3.0703-1.9253-4.627-.5576l-.2515.2212c-.6562.5767-1.0977,1.1738-1.3247,1.7925-.2266.6187-.2295,1.3311-.0083,2.1367l-2.8301.7021c-.3599-1.1167-.3433-2.2598.0483-3.4292.3926-1.1689,1.1606-2.2563,2.3047-3.2622l.3433-.3013c1.5562-1.3677,3.084-2.0137,4.583-1.9385s2.9121.8677,4.2397,2.3784l6.5156,7.415-2.2202,1.9507-1.5684-1.7852c.2119.9492.1392,1.9121-.2188,2.8892-.3584.9771-.9722,1.8477-1.8418,2.6123l-.1602.1406Zm-1.355-9.1113l-2.71,3.1929c-.6997.8042-1.0986,1.4658-1.1968,1.9844-.0981.519.0806,1.0381.5361,1.5566.4561.5186.9937.7695,1.6138.7515.6196-.0171,1.2578-.3145,1.9141-.8906l.229-.2012c.8999-.791,1.3726-1.6992,1.417-2.7256.0449-1.0259-.3418-2.0044-1.1597-2.9355l-.6436-.7324Z"/><path class="cls-2" d="m183.938,123.2837l-9.9365-12.0244,2.2783-1.8823,1.8823,2.2778c-.3105-.9814-.377-1.9146-.1992-2.7998.1782-.8843.752-1.728,1.7231-2.5303l1.2212-1.0093,1.9795,2.3955-1.1978.9897c-.564.4658-.9883,1.0283-1.2749,1.686-.2861.6582-.3584,1.3833-.2178,2.1758.1411.7925.5806,1.6348,1.3179,2.5273l5.0073,6.0591-2.5835,2.1348Z"/><path class="cls-2" d="m196.3569,113.7197c-1.314,1.0234-2.584,1.4912-3.8105,1.4038s-2.2954-.7158-3.2065-1.8857c-.7861-1.0093-1.1123-2.0806-.9785-3.2148.1338-1.1338.7471-2.2554,1.8398-3.3643l3.9014-3.9653-.0747-.0957c-1.4229-1.8271-2.9517-2.104-4.5859-.8311l-.2646.2061c-.689.5366-1.165,1.1074-1.4282,1.7109-.2632.6045-.3081,1.3154-.1348,2.1328l-2.8667.5337c-.293-1.1362-.209-2.2764.2515-3.4204.4609-1.144,1.292-2.1841,2.4937-3.1201l.3604-.2808c1.6348-1.2729,3.1978-1.8271,4.6899-1.6641,1.4917.1641,2.8555,1.0391,4.0913,2.6255l6.0654,7.7876-2.3315,1.8159-1.4604-1.875c.1558.9604.0259,1.9175-.3892,2.8716-.4155.9541-1.0796,1.7866-1.9932,2.498l-.1685.1313Zm-.813-9.1753l-2.8945,3.0264c-.7456.7617-1.1831,1.3984-1.312,1.9102-.1289.5127.019,1.041.4434,1.5854.4243.5449.9463.8271,1.5664.8462.6196.0195,1.2744-.2393,1.9634-.7764l.2402-.187c.9453-.7363,1.4707-1.6147,1.5762-2.6372.1055-1.0215-.2227-2.021-.9839-2.9985l-.5991-.769Z"/><path class="cls-2" d="m211.3389,102.1206c-1.5908,1.1626-2.9829,1.6328-4.1763,1.4106-1.1938-.2217-2.2759-.9966-3.2471-2.3247l-4.6382-6.3462-2.6562,1.9419-1.6357-2.2383,2.6562-1.9419-2.7148-3.7139,2.7056-1.9775,2.7148,3.7139,4.1074-3.002,1.3164,2.4717-3.7881,2.7686,4.5483,6.2231c.5156.7051,1.0479,1.0894,1.5977,1.1528.5498.064,1.1523-.144,1.8086-.6235l2.1396-1.564,1.6719,2.2871-2.4102,1.7622Z"/><path class="cls-2" d="m205.7163,83.3867l-2.0049-2.8735,2.8486-1.9873,2.0044,2.8735-2.8481,1.9873Zm10.562,15.0312l-8.9258-12.7925,2.7485-1.9175,8.9258,12.792-2.7485,1.918Z"/><path class="cls-2" d="m228.189,90.7905c-1.1704.771-2.3828,1.2104-3.6362,1.3193-1.2544.1094-2.4712-.1416-3.6504-.751-1.1802-.6089-2.2163-1.5918-3.1104-2.9492l-.5366-.814c-.9048-1.374-1.4019-2.7183-1.4902-4.0347-.0884-1.3154.1616-2.5322.751-3.6504.5894-1.1177,1.4692-2.062,2.6392-2.833l.229-.1509c1.1704-.771,2.3896-1.209,3.6577-1.3149,1.2676-.1055,2.4849.145,3.6504.751,1.1655.6064,2.1953,1.5879,3.0894,2.9448l.5527.8394c.894,1.3574,1.3921,2.6948,1.4946,4.0137.103,1.3188-.1475,2.5361-.7505,3.6504-.604,1.1147-1.4902,2.0576-2.6606,2.8286l-.229.1509Zm-1.5752-2.3916l.2036-.1338c.9663-.6367,1.5542-1.498,1.7632-2.5845.2085-1.0859-.1284-2.2988-1.0112-3.6392l-.6201-.9414c-.8823-1.3394-1.8613-2.1235-2.936-2.3525-1.0747-.2275-2.0952-.0239-3.062.6128l-.2036.1343c-.9502.626-1.5317,1.4775-1.7461,2.5547-.2148,1.0781.1201,2.2866,1.0024,3.6265l.6201.9414c.8828,1.3398,1.8638,2.1284,2.9443,2.3652,1.0801.2368,2.0952.0425,3.0454-.5835Z"/><path class="cls-2" d="m237.2515,84.4375l-8.0825-13.3413,2.5278-1.5312,1.2153,2.0063c-.0249-.9819.1938-1.9038.6567-2.7666.4629-.8623,1.1899-1.5938,2.1802-2.1934l.2607-.1577c1.5112-.916,3.0024-1.1782,4.4741-.7871,1.4712.3906,2.7441,1.4722,3.8174,3.2437l4.9883,8.2344-2.8662,1.7363-4.7515-7.8433c-.6631-1.0942-1.4053-1.79-2.2266-2.0884-.8218-.2974-1.7104-.1572-2.6655.4219l-.1826.1104c-.5562.3369-1.0015.7969-1.3369,1.3799-.3354.5835-.4858,1.2559-.4512,2.0186s.3203,1.5869.8569,2.4731l4.4517,7.3481-2.8662,1.7363Z"/><path class="cls-2" d="m740.0078,100.6782l19.4502-12.1118,2.4941,1.8545-5.9805,22.1304-3.0312-2.2544,1.4121-4.9106-7.2119-5.3638-4.2725,2.7832-2.8604-2.1274Zm9.7402-2.3237l5.4756,4.0728,2.7354-9.3945-8.2109,5.3218Z"/><path class="cls-2" d="m758.2559,114.4678l13.252-16.7095,2.7451,2.1768-13.252,16.7095-2.7451-2.1768Z"/><path class="cls-2" d="m774.4268,127.7837l12-13.8296-4.9932-4.3325,1.9766-2.2783,12.6338,10.9619-1.9775,2.2778-4.9932-4.3325-12,13.8296-2.6465-2.2964Z"/><path class="cls-2" d="m782.8779,135.2217l10.5527-11.4878,2.1758,1.9995-1.999,2.1763c.9297-.4424,1.8457-.6353,2.7461-.5801s1.8145.5083,2.7422,1.3604l1.167,1.0718-2.1025,2.2886-1.1445-1.0513c-.5381-.4946-1.1533-.8384-1.8438-1.0322-.6914-.1934-1.4189-.166-2.1855.082-.7656.248-1.54.7988-2.3232,1.6514l-5.3164,5.7886-2.4688-2.2671Z"/><path class="cls-2" d="m794.041,146.2061c-1.1934-1.1616-1.8311-2.356-1.9121-3.5825-.0811-1.2271.3955-2.3716,1.4287-3.4346.8926-.917,1.9092-1.3867,3.0518-1.4097,1.1406-.0225,2.3359.4316,3.584,1.3628l4.4619,3.3218.085-.0874c1.6143-1.6592,1.6797-3.2114.1953-4.6562l-.2402-.2339c-.626-.6089-1.2568-1.0024-1.8906-1.1807-.6348-.1777-1.3447-.125-2.1309.1582l-.9209-2.7666c1.085-.4458,2.2266-.5186,3.4229-.2192,1.1963.3003,2.3398.981,3.4316,2.0435l.3271.3188c1.4854,1.4448,2.248,2.917,2.29,4.4175s-.6377,2.9712-2.04,4.4121l-6.8848,7.0742-2.1182-2.061,1.6582-1.7031c-.9307.2856-1.8965.2881-2.8984.0073-1.002-.2812-1.918-.8252-2.7471-1.6323l-.1533-.1489Zm8.9775-2.061l-3.3936-2.4531c-.8564-.6348-1.5479-.9805-2.0723-1.0381-.5254-.0576-1.0283.1611-1.5098.6558-.4814.4951-.6895,1.0508-.624,1.6675.0664.6167.4121,1.2295,1.0381,1.8389l.2188.2124c.8584.8359,1.8008,1.2358,2.8271,1.2007,1.0264-.0356,1.9717-.4976,2.8359-1.3853l.6797-.6987Z"/><path class="cls-2" d="m803.1641,154.688l11.1621-10.896,2.3408,2.3984-11.1621,10.896-2.3408-2.3984Zm13.1035-12.876l2.5068-2.4473,2.4258,2.4854-2.5068,2.4473-2.4258-2.4854Z"/><path class="cls-2" d="m808.4941,160.1309l11.4541-10.5894,2.0059,2.1699-1.7227,1.5928c.957-.2212,1.9043-.1909,2.8428.0898.9365.2812,1.7988.8467,2.585,1.6968l.207.2236c1.1992,1.2979,1.7549,2.7061,1.666,4.2266-.0879,1.5195-.8926,2.9829-2.4141,4.3896l-7.0693,6.5352-2.2744-2.4609,6.7334-6.2251c.9395-.8687,1.4727-1.7349,1.6006-2.5996.127-.8643-.1885-1.707-.9473-2.5273l-.1445-.1562c-.4414-.4775-.9814-.8218-1.6191-1.0337-.6387-.2124-1.3281-.2246-2.0684-.0381s-1.4912.6313-2.252,1.3345l-6.3076,5.832-2.2754-2.4604Z"/><path class="cls-2" d="m820.7412,173.5698l11.7373-10.2729,2.207,2.5215-11.7373,10.2734-2.207-2.522Zm13.7832-12.145l2.6367-2.3076,2.2871,2.6138-2.6357,2.3076-2.2881-2.6138Z"/><path class="cls-2" d="m825.7725,179.2993l12.0127-9.9507,1.8848,2.2759-1.8066,1.4966c.9678-.1689,1.9121-.0874,2.833.2441s1.751.9434,2.4893,1.835l.1943.2349c1.127,1.3608,1.6055,2.7974,1.4346,4.3105-.1709,1.5127-1.0537,2.9302-2.6494,4.252l-7.4141,6.1411-2.1377-2.5811,7.0615-5.8496c.9863-.8164,1.5654-1.6523,1.7402-2.5088.1738-.8564-.0957-1.7148-.8076-2.5752l-.1367-.1641c-.4141-.501-.9346-.874-1.5605-1.1201-.626-.2466-1.3135-.2964-2.0635-.1504-.749.146-1.5225.5493-2.3203,1.21l-6.6162,5.4805-2.1377-2.5806Z"/><path class="cls-2" d="m835.8877,202.2241c-.9385-1.2261-1.5195-2.3862-1.7432-3.4805-.2246-1.0947-.1309-2.1582.2822-3.1899l2.8896.8184c-.2852.73-.3623,1.4224-.2324,2.0771.1309.6543.498,1.3774,1.1035,2.1675l.2402.3145c1.5811,2.0645,3.54,2.2012,5.8789.4111l1.2822-.9814c-1.8203.0625-3.3594-.7285-4.6182-2.3735l-.1299-.1694c-.8027-1.0483-1.2568-2.1587-1.3613-3.3315-.1055-1.1729.127-2.3228.6973-3.4497.5693-1.127,1.4512-2.147,2.6445-3.061l.6533-.5c1.1934-.9136,2.4082-1.498,3.6445-1.7544,1.2363-.2559,2.4072-.1802,3.5117.2275,1.1045.4072,2.0586,1.1348,2.8613,2.1836l.1299.1689c1.457,1.9028,1.7686,3.8135.9346,5.731l1.8379-1.4072,1.7969,2.3462-11.7568,9.001c-1.8545,1.4194-3.6621,2.0229-5.4238,1.8115-1.7607-.2124-3.3389-1.2295-4.7344-3.0518l-.3887-.5078Zm7.6719-5.5664l.166.2178c.7285.9512,1.6543,1.4512,2.7783,1.499,1.124.0474,2.25-.3604,3.3789-1.2246l.6045-.4634c1.1455-.8765,1.833-1.8574,2.0645-2.9419.2305-1.085-.0176-2.1035-.7461-3.0547l-.167-.2178c-.7529-.9839-1.6719-1.5078-2.7578-1.5723-1.085-.0645-2.2002.3418-3.3447,1.2183l-.6777.5186c-1.1455.877-1.8369,1.853-2.0732,2.9302-.2373,1.0767.0205,2.1069.7744,3.0908Z"/><path class="cls-2" d="m697.6953,904.917c-1.7773.9414-3.498,1.3682-5.1621,1.2842-1.665-.084-3.1992-.6387-4.6045-1.665-1.4043-1.0254-2.6006-2.4727-3.5889-4.3408l-.5986-1.1299c-.9883-1.8672-1.5107-3.6699-1.5693-5.4082s.3457-3.3193,1.2119-4.7432c.8672-1.4238,2.1895-2.6064,3.9658-3.5469l.2969-.1562c1.7949-.9502,3.5254-1.3828,5.1895-1.2988,1.665.084,3.1943.6416,4.5908,1.6719,1.3955,1.0322,2.5869,2.4805,3.5752,4.3477l.5986,1.1309c.9883,1.8682,1.5156,3.667,1.583,5.4014s-.332,3.3125-1.1992,4.7354c-.8672,1.4238-2.1982,2.6123-3.9932,3.5615l-.2959.1562Zm-1.3975-2.7061l.2686-.1436c1.6875-.8926,2.7178-2.1494,3.0889-3.7705.3711-1.6221.0107-3.4648-1.082-5.5283l-.6836-1.293c-1.0928-2.0654-2.4131-3.3994-3.9629-4.0039s-3.168-.46-4.8555.4316l-.2695.1416c-1.6865.8936-2.7168,2.1523-3.0879,3.7725-.3721,1.6221-.0107,3.4639,1.0811,5.5283l.6846,1.293c1.0918,2.0645,2.4131,3.3994,3.9629,4.0039,1.5488.6055,3.167.46,4.8555-.4316Z"/><path class="cls-2" d="m713.3682,902.8721l-11.0059-18.6924,2.5469-1.5,1.1592,1.9688c-.0127-.9824.2314-1.8975.7334-2.7461.502-.8496,1.2695-1.5781,2.3018-2.1875l.1572-.0918c1.1025-.6504,2.2354-.9678,3.3965-.957,1.1611.0117,2.2832.3652,3.3643,1.0605,1.0811.6934,2.0439,1.7598,2.8887,3.1953l.5098.8652c.835,1.418,1.2949,2.7686,1.3779,4.0508.084,1.2832-.1543,2.4307-.7129,3.4434-.5586,1.0117-1.3896,1.8428-2.4922,2.4922l-.1582.0938c-.8926.5244-1.7822.8242-2.6689.8984-.8877.0752-1.7305-.0645-2.5283-.4209l4.0195,6.8271-2.8887,1.7002Zm1.9053-11.0566l.21-.124c.9971-.5869,1.6328-1.4082,1.9062-2.4648.2734-1.0576-.0117-2.3027-.8574-3.7383l-.5254-.8926c-.8447-1.4346-1.7949-2.2891-2.8525-2.5635-1.0566-.2725-2.084-.1162-3.0811.4707l-.21.124c-.5957.3506-1.0684.8184-1.4199,1.4014-.3516.585-.5088,1.2783-.4717,2.0811s.3486,1.7051.9365,2.7012l.4785.8145c.5771.9795,1.2109,1.6846,1.9004,2.1152.6895.4316,1.3818.6367,2.0762.6162.6963-.0195,1.332-.2002,1.9102-.541Z"/><path class="cls-2" d="m732.0791,884.5527c-1.6631,1.0566-3.083,1.4336-4.2598,1.1348s-2.2061-1.1445-3.0879-2.5332l-4.2129-6.6338-2.7783,1.7637-1.4863-2.3408,2.7783-1.7637-2.4668-3.8828,2.8291-1.7969,2.4668,3.8828,4.2949-2.7266,1.1514,2.5527-3.96,2.5137,4.1318,6.5068c.4678.7383.9746,1.1572,1.5186,1.2568s1.1592-.0703,1.8447-.5049l2.2383-1.4209,1.5186,2.3916-2.5205,1.6006Z"/><path class="cls-2" d="m727.2754,865.5645l-1.9453-2.9141,2.8887-1.9268,1.9453,2.9131-2.8887,1.9277Zm10.2529,15.2451l-8.6621-12.9736,2.7871-1.8594,8.6621,12.9717-2.7871,1.8613Z"/><path class="cls-2" d="m744.4766,876.2852l-9.1572-12.627,2.3926-1.7344,1.3594,1.874c-.123-.9648-.0107-1.874.3359-2.7285.3467-.8525.9482-1.5898,1.8027-2.2109l.2227-.1592c1.9072-1.3848,3.7891-1.5566,5.6455-.5195-.1299-1.0098-.0059-1.9717.3721-2.8857.3789-.9131,1.0195-1.6982,1.9238-2.3545l.2227-.1602c1.3809-1.002,2.792-1.3477,4.2334-1.0391,1.4414.3105,2.7705,1.3037,3.9863,2.9805l5.6514,7.7949-2.7129,1.9668-5.3838-7.4238c-.751-1.0361-1.5195-1.6895-2.3047-1.96-.7861-.2705-1.5986-.1025-2.4375.5059l-.1973.1426c-.46.334-.8125.792-1.0576,1.3691-.2451.5791-.3066,1.2393-.1846,1.9775.1221.7402.4873,1.5293,1.0957,2.3672l5.0439,6.9551-2.7139,1.9678-5.3828-7.4238c-.751-1.0361-1.5195-1.6885-2.3057-1.96s-1.5977-.1016-2.4365.5059l-.1973.1445c-.46.332-.8135.79-1.0576,1.3691-.2451.5781-.3066,1.2383-.1846,1.9775s.4873,1.5283,1.0957,2.3662l5.043,6.9551-2.7129,1.9668Z"/><path class="cls-2" d="m755.7246,845.1016l-2.1631-2.7539,2.7305-2.1465,2.1641,2.7549-2.7314,2.1455Zm11.3984,14.4082l-9.6367-12.2656,2.6348-2.0703,9.6367,12.2666-2.6348,2.0693Z"/><path class="cls-2" d="m772.8291,855.0342l-1.6299-1.9717-.3936-12.9561-6.0107,4.9697-1.7861-2.1621,9.252-7.6465,1.6113,1.9492.4121,12.9785,6.2461-5.1631,1.7852,2.1611-9.4863,7.8408Z"/><path class="cls-2" d="m790.3506,840.6943c-1.7021,1.5088-3.4697,2.1875-5.3018,2.0332-1.833-.1533-3.5635-1.1494-5.1943-2.9883l-.667-.7529c-1.6025-1.8086-2.373-3.6562-2.3096-5.5449s.9229-3.5664,2.5801-5.0352l.2051-.1826c1.5801-1.4004,3.2686-2.0146,5.0635-1.8418,1.7959.1729,3.4346,1.0947,4.916,2.7666l1.2334,1.3906-8.2764,7.3359c1.0557,1.0996,2.0879,1.7061,3.0957,1.8164,1.0078.1113,1.959-.2305,2.8564-1.0264l.3418-.3037c.6846-.6055,1.1465-1.2246,1.3857-1.8584.2383-.6318.2871-1.3066.1426-2.0205l2.875-.4307c.21,1.0615.0977,2.1465-.3359,3.249-.4336,1.1035-1.1895,2.1338-2.2686,3.0898l-.3418.3037Zm-9.2842-4.5947l5.8135-5.1533-.1416-.1611c-.835-.9414-1.7109-1.4473-2.6279-1.5176-.916-.0684-1.8008.2734-2.6514,1.0293l-.1826.1602c-.8359.7422-1.2793,1.5967-1.3301,2.5645-.0518.9678.3213,1.9941,1.1201,3.0781Z"/><path class="cls-2" d="m805.332,826.2793l-8.9688-9.168-2.2871,2.2363-1.9385-1.9824,2.2871-2.2363-.7891-.8047c-1.2637-1.293-1.9131-2.6113-1.9492-3.9541-.0352-1.3428.6797-2.7324,2.1465-4.167l1.8945-1.8535,1.9814,2.0254-1.8076,1.7686c-.6533.6387-.9648,1.2646-.9355,1.874.0283.6113.3555,1.2363.9805,1.875l.873.8926,3.6592-3.5781,1.6562,2.2578-3.376,3.3018,8.9697,9.1689-2.3965,2.3438Z"/><path class="cls-2" d="m817.9854,814.1172c-.9697,1.0127-2.0547,1.71-3.2529,2.0957-1.1982.3848-2.4404.4102-3.7266.0781-1.2852-.332-2.5137-1.0596-3.6865-2.1836l-.7041-.6758c-1.1885-1.1377-1.9717-2.3398-2.3496-3.6025-.3789-1.2627-.4053-2.5049-.0791-3.7256s.9736-2.3379,1.9443-3.3477l.1895-.1992c.9697-1.0107,2.0615-1.709,3.2744-2.0938,1.2119-.3857,2.4541-.4121,3.7256-.0801,1.2715.333,2.4941,1.0605,3.666,2.1855l.7256.6953c1.1738,1.125,1.9561,2.3184,2.3496,3.582.3926,1.2627.4189,2.5039.0791,3.7246-.3418,1.2217-.9961,2.3379-1.9658,3.3496l-.1895.1973Zm-2.0674-1.9805l.168-.1758c.8018-.8359,1.1826-1.8066,1.1455-2.9121-.0381-1.1055-.6357-2.2129-1.7939-3.3232l-.8135-.7803c-1.1582-1.1104-2.2871-1.6572-3.3857-1.6426-1.0986.0176-2.0488.4424-2.8496,1.2793l-.1689.1758c-.7871.8213-1.165,1.7803-1.1348,2.8789.0303,1.0977.625,2.2031,1.7832,3.3125l.8135.7793c1.1582,1.1113,2.29,1.6621,3.3965,1.6533,1.1055-.0088,2.0527-.4248,2.8398-1.2451Z"/><path class="cls-2" d="m825.6875,805.3311l-11.6055-10.4219,1.9736-2.1982,2.1992,1.9746c-.4521-.9258-.6562-1.8379-.6113-2.7402.0459-.9004.4883-1.8203,1.3301-2.7578l1.0586-1.1777,2.3125,2.0762-1.0391,1.1562c-.4883.543-.8252,1.1621-1.0107,1.8555s-.1504,1.4219.1064,2.1836c.2568.7637.8164,1.5312,1.6768,2.3047l5.8486,5.252-2.2393,2.4932Z"/><path class="cls-2" d="m839.5029,789.4893l-16.4219-13.6064,2.2363-2.6992,16.4209,13.6074-2.2354,2.6982Z"/><path class="cls-2" d="m845.1289,782.6973l-12.2988-9.5947,1.8174-2.3291,1.8496,1.4434c-.373-.9102-.4961-1.8496-.3701-2.8213.126-.9697.5449-1.9111,1.2568-2.8252l.1875-.2402c1.0869-1.3926,2.3877-2.168,3.9014-2.3262,1.5146-.1582,3.0889.3984,4.7227,1.6738l7.5908,5.9209-2.0605,2.6426-7.2314-5.6396c-1.0088-.7871-1.9502-1.1748-2.8242-1.1602-.873.0146-1.6543.4609-2.3408,1.3428l-.1318.167c-.3994.5127-.6523,1.1016-.7588,1.7656-.1055.6641-.0068,1.3477.2969,2.0469.3037.7012.8643,1.3691,1.6807,2.0068l6.7744,5.2832-2.0615,2.6436Z"/><path class="cls-2" d="m857.4082,766.6621l-10.3682-7.5498-1.8838,2.585-2.2412-1.6318,1.8828-2.585-.9111-.6641c-1.4609-1.0645-2.3203-2.2549-2.5791-3.5742s.2158-2.8076,1.4238-4.4668l1.5596-2.1416,2.291,1.667-1.4893,2.0449c-.5371.7383-.7412,1.4062-.6104,2.0039.1299.5977.5566,1.1592,1.2783,1.6855l1.0098.7344,3.0127-4.1367,2.0088,1.9521-2.7803,3.8164,10.3701,7.5498-1.9736,2.7109Z"/><path class="cls-2" d="m867.791,752.6738c-1.2812,1.8809-2.8271,2.9707-4.6426,3.2705-1.8135.3008-3.7363-.2412-5.7676-1.624l-.8311-.5664c-1.9971-1.3604-3.1963-2.9639-3.5977-4.8105-.4023-1.8457.0205-3.6836,1.2666-5.5117l.1543-.2285c1.1895-1.7441,2.6758-2.7539,4.458-3.0264,1.7832-.2725,3.5977.2197,5.4443,1.4766l1.5361,1.0479-6.2266,9.1387c1.2939.8086,2.4434,1.1426,3.4473,1.002,1.0029-.1387,1.8428-.7031,2.5176-1.6943l.2578-.377c.5146-.7568.8105-1.4688.8877-2.1416.0762-.6729-.042-1.3359-.3564-1.9941l2.6807-1.123c.4639.9795.6211,2.0586.4707,3.2324-.1494,1.1758-.6299,2.3613-1.4414,3.5527l-.2578.377Zm-10.1279-2.1787l4.375-6.4209-.1758-.1201c-1.042-.709-2.0156-.9854-2.9209-.8271-.9062.1582-1.6787.7051-2.3193,1.6465l-.1377.1992c-.6279.9238-.8486,1.8613-.6602,2.8125.1865.9512.7998,1.8555,1.8389,2.71Z"/><path class="cls-2" d="m873.5635,743.291l-13.165-8.3672,1.585-2.4941,2.4951,1.585c-.5986-.8369-.9502-1.7051-1.0547-2.6006-.1035-.8965.1816-1.877.8574-2.9385l.8496-1.3369,2.624,1.667-.835,1.3096c-.3916.6172-.6211,1.2842-.6914,1.9971-.0684.7158.0869,1.4277.4648,2.1367.3789.7119,1.0576,1.376,2.0342,1.9971l6.6348,4.2168-1.7988,2.8281Z"/><path class="cls-2" d="m883.5391,727.9238c-1.1621,1.957-2.6387,3.1416-4.4307,3.5527-1.791.4121-3.7432-.0098-5.8564-1.2637l-.8643-.5137c-2.0781-1.2344-3.375-2.7598-3.8896-4.5781-.5166-1.8184-.208-3.6787.9219-5.582l.1406-.2344c1.0781-1.8174,2.5-2.916,4.2617-3.2988,1.7627-.3818,3.6045-.0039,5.5254,1.1377l1.5986.9482-5.6475,9.5088c1.3408.7256,2.5078.9873,3.501.7881.9941-.2021,1.7959-.8184,2.4082-1.8486l.2334-.3926c.4658-.7871.7178-1.5166.7529-2.1934.0352-.6748-.124-1.3311-.4795-1.9668l2.6074-1.2871c.5225.9482.7461,2.0146.6689,3.1973-.0752,1.1826-.4824,2.3955-1.2188,3.6338l-.2334.3926Zm-10.2422-1.5469l3.9668-6.6797-.1836-.1094c-1.082-.6426-2.0703-.8574-2.9648-.6445-.8945.2139-1.6318.8086-2.2129,1.7871l-.124.209c-.5703.9609-.7324,1.9102-.4863,2.8477s.915,1.8008,2.0049,2.5898Z"/><path class="cls-2" d="m888.7939,718.1406l-13.708-7.4434,1.4111-2.5977,2.0605,1.1191c-.5166-.835-.792-1.7412-.8271-2.7197s.2227-1.9756.7764-2.9941l.1445-.2666c.8428-1.5527,1.999-2.5322,3.4668-2.9375,1.4678-.4033,3.1123-.1123,4.9326.877l8.46,4.5947-1.5996,2.9443-8.0586-4.376c-1.124-.6104-2.1152-.8379-2.9756-.6807-.8594.1572-1.5566.7266-2.0889,1.708l-.1025.1875c-.3096.5723-.4619,1.1943-.458,1.8662.0049.6719.2148,1.3301.6289,1.9717.415.6396,1.0762,1.208,1.9873,1.7031l7.5498,4.0986-1.5996,2.9453Z"/><path class="cls-2" d="m900.9375,695.8545c-1.0107,2.0391-2.4062,3.3604-4.1895,3.96-1.7812.6016-3.7832.3535-6.0039-.7461l-.9004-.4473c-1.4561-.7207-2.5615-1.6133-3.3145-2.6777-.7539-1.0645-1.1553-2.2324-1.2041-3.5039-.0508-1.2715.2471-2.5625.8975-3.873l.1348-.2734c.6396-1.291,1.4922-2.2344,2.5576-2.8291,1.0645-.5947,2.207-.8408,3.4238-.7354l-.125,2.9297c-.7002-.0068-1.332.1387-1.8994.4365-.5664.2979-1.0215.792-1.3633,1.4834l-.123.2461c-.5303,1.0742-.6104,2.127-.2402,3.1621.3721,1.0332,1.2695,1.9023,2.6885,2.6055l1.0098.5c1.4746.7305,2.7217.9346,3.7422.6113,1.0215-.3203,1.8066-1.0361,2.3564-2.1465l.1211-.2461c.3604-.7285.5039-1.416.4287-2.0654-.0752-.6484-.3184-1.2461-.7295-1.79l2.3916-1.7383c.7119.8516,1.1289,1.8848,1.252,3.1006.1221,1.2178-.1367,2.4717-.7754,3.7646l-.1357.2725Z"/><path class="cls-2" d="m907.9395,681.0176c-.9365,2.0742-2.2705,3.416-4.0049,4.0264-1.7334.6104-3.7217.4092-5.9619-.6006l-.916-.4141c-2.2041-.9941-3.6631-2.3652-4.3789-4.1133s-.6182-3.6309.293-5.6504l.1123-.249c.8682-1.9258,2.1572-3.1768,3.8662-3.7549,1.71-.5762,3.5811-.4062,5.6172.5117l1.6953.7637-4.5479,10.082c1.4131.5713,2.6035.7002,3.5684.3896.9648-.3115,1.6934-1.0127,2.1846-2.1055l.1885-.417c.376-.833.5439-1.5879.5029-2.2627-.04-.6748-.2725-1.3105-.6963-1.9014l2.4463-1.5713c.626.8838.9678,1.9189,1.0244,3.1025.0547,1.1836-.2129,2.4336-.8047,3.7471l-.1885.417Zm-10.3525-.3906l3.1953-7.082-.1953-.0879c-1.1475-.5176-2.1533-.6201-3.0186-.3086-.8643.3125-1.5312.9863-1.998,2.0234l-.0996.2207c-.46,1.0195-.5146,1.9805-.1641,2.8848.3496.9043,1.1094,1.6875,2.2803,2.3496Z"/><path class="cls-2" d="m64.4736,717.3926l18.4141-10.7588,4.103,7.0244c1.0654,1.8232,1.6138,3.5664,1.645,5.2305.0308,1.6641-.4053,3.2012-1.3101,4.6113-.9053,1.4111-2.2432,2.6348-4.0142,3.6689l-1.105.6455c-2.7007,1.5781-5.251,2.085-7.6489,1.5225-2.3994-.5635-4.3926-2.2031-5.9805-4.9219l-4.1035-7.0225Zm4.3716,1.5029l2.3057,3.9463c1.0342,1.7705,2.3281,2.8379,3.8813,3.2012,1.5527.3623,3.3286-.0391,5.3281-1.207l1.2368-.7227c1.9458-1.1377,3.1514-2.4766,3.6152-4.0176.4634-1.541.1787-3.1973-.8564-4.9688l-2.3052-3.9463-13.2056,7.7148Z"/><path class="cls-2" d="m78.959,742.1172c-1.23-1.9141-1.6289-3.7637-1.1953-5.5508.4321-1.7871,1.6831-3.3447,3.7505-4.6738l.8457-.5439c2.0332-1.3057,3.978-1.7832,5.8345-1.4307,1.855.3516,3.3823,1.459,4.5786,3.3223l.1484.2305c1.1421,1.7773,1.4893,3.5391,1.0435,5.2871-.4463,1.7471-1.6094,3.2246-3.4883,4.4316l-1.5635,1.0059-5.979-9.3037c-1.2485.874-2.0054,1.8018-2.2695,2.7803s-.0728,1.9717.5752,2.9805l.2471.3838c.4946.7686,1.0356,1.3203,1.6245,1.6533.5884.334,1.2466.4863,1.9736.4531l-.0146,2.9062c-1.0825.043-2.1357-.2334-3.1592-.8311-1.0239-.5977-1.9258-1.5029-2.7051-2.7158l-.2471-.3848Zm5.9648-8.4688l4.1997,6.5352.1802-.1152c1.0586-.6797,1.6934-1.4688,1.9028-2.3633s.0063-1.8213-.6084-2.7773l-.1318-.2051c-.604-.9414-1.3804-1.5098-2.3286-1.709-.9497-.1992-2.02.0137-3.2139.6348Z"/><path class="cls-2" d="m80.3647,754.6846l17.7837-12.4199,1.6919,2.4229-1.873,1.3086c.9785-.0898,1.9097.084,2.7959.5176.8853.4346,1.6714,1.1426,2.3574,2.125l.1045.1504c.7334,1.0488,1.1387,2.1523,1.2173,3.3125.0781,1.1582-.187,2.3037-.7959,3.4355-.6099,1.1318-1.5972,2.1738-2.9624,3.1279l-.8247.5752c-1.3486.9424-2.6592,1.5049-3.9312,1.6875-1.2725.1826-2.4351.0342-3.4873-.4443-1.0527-.4795-1.9463-1.2432-2.6782-2.292l-.105-.1504c-.5928-.8486-.9609-1.7129-1.104-2.5918-.1436-.8789-.0693-1.7285.2236-2.5527l-6.4941,4.5352-1.9185-2.7471Zm11.1699,1.043l.1396.2002c.6626.9492,1.5312,1.5186,2.6064,1.71,1.0742.1904,2.2944-.1904,3.6602-1.1445l.8491-.5928c1.3652-.9541,2.1436-1.9678,2.3345-3.043.1904-1.0742-.0449-2.0869-.708-3.0352l-.1396-.2012c-.3955-.5654-.8984-1.001-1.5073-1.3057-.6094-.3057-1.3135-.4092-2.1113-.3096-.7983.0996-1.6714.4805-2.6201,1.1426l-.7749.541c-.9326.6523-1.5869,1.3379-1.9619,2.0586-.377.7207-.5273,1.4268-.4536,2.1182.0742.6914.3032,1.3115.687,1.8613Z"/><path class="cls-2" d="m96.2715,766.5645l17.8628-13.248,1.9966,2.6914-17.8638,13.248-1.9956-2.6914Z"/><path class="cls-2" d="m104.8359,778.4795c-.8657-1.1016-1.4043-2.2734-1.6172-3.5137-.2134-1.2412-.0649-2.4746.4443-3.7002.5093-1.2266,1.4019-2.3408,2.6802-3.3447l.7666-.6025c1.293-1.0156,2.5923-1.623,3.8965-1.8213,1.3037-.1973,2.5371-.0498,3.6997.4443,1.1631.4941,2.1777,1.293,3.0435,2.3945l.1694.2148c.8657,1.1035,1.4038,2.2812,1.6152,3.5361.21,1.2549.062,2.4883-.4448,3.7002-.5073,1.2129-1.3999,2.3203-2.6772,3.3242l-.7905.6211c-1.2783,1.0039-2.5698,1.6113-3.875,1.8232-1.3057.2119-2.54.0635-3.7002-.4443-1.1611-.5098-2.1753-1.3135-3.0405-2.416l-.1699-.2158Zm2.252-1.7686l.1509.1914c.7148.9102,1.6221,1.4238,2.7222,1.542,1.0996.1172,2.2803-.3193,3.5425-1.3105l.8862-.6963c1.2617-.9902,1.9614-2.0312,2.1001-3.1211.1377-1.0898-.1504-2.0898-.8652-3.001l-.1509-.1924c-.7026-.8945-1.6001-1.4023-2.6914-1.5273-1.0918-.123-2.2686.3105-3.5303,1.3008l-.8867.6973c-1.2617.9902-1.9653,2.0342-2.1118,3.1309-.146,1.0957.1318,2.0918.8345,2.9863Z"/><path class="cls-2" d="m107.1904,790.5615l2.1655-1.8271.6289.7451c.5894.6982,1.1738,1.1152,1.7534,1.251.5791.1357,1.3682.0078,2.3672-.3828l.6694-.2461,7.9727-14.7393,2.3184,2.7471-6.4238,11.001,11.7085-4.7373,2.1812,2.585-16.1987,5.9355c-1.4741.5518-2.6943.8701-3.6592.9541-.9658.084-1.8066-.0703-2.5229-.4629-.7158-.3916-1.4546-1.0381-2.2139-1.9385l-.7466-.8848Z"/><path class="cls-2" d="m130.6323,808.6562c-1.1392-1.2148-1.7207-2.4365-1.7461-3.666-.0249-1.2295.5029-2.3516,1.5845-3.3652.9336-.875,1.9707-1.2979,3.1123-1.2686,1.1411.0303,2.314.5381,3.5176,1.5244l4.3062,3.5225.0884-.083c1.689-1.584,1.8252-3.1309.4077-4.6426l-.2285-.2441c-.5977-.6377-1.209-1.0586-1.835-1.2666-.626-.2061-1.3379-.1865-2.1353.0615l-.7939-2.8066c1.1045-.3955,2.2476-.416,3.4292-.0625,1.1812.3555,2.293,1.0869,3.3345,2.1992l.313.332c1.417,1.5117,2.1123,3.0176,2.0854,4.5186s-.7729,2.9385-2.2402,4.3135l-7.2007,6.752-2.021-2.1543,1.7329-1.627c-.9414.2432-1.9067.2012-2.8945-.125-.9883-.3262-1.8779-.9121-2.6699-1.7559l-.1465-.1562Zm9.063-1.6484l-3.2793-2.6055c-.8262-.6729-1.5-1.0508-2.0215-1.1309-.522-.082-1.0347.1133-1.5381.585-.5039.4736-.7373,1.0186-.6992,1.6377.0371.6191.3545,1.2461.9521,1.8848l.2085.2227c.8193.873,1.7432,1.3164,2.77,1.3281,1.0269.0107,1.9922-.4062,2.8965-1.2549l.7109-.667Z"/><path class="cls-2" d="m144.3848,822.501c-1.3926-1.3936-2.0708-2.6982-2.0342-3.9111.0366-1.2148.6367-2.4023,1.8008-3.5645l5.561-5.5557-2.3252-2.3271,1.9614-1.959,2.3247,2.3262,3.2549-3.251,2.3687,2.3721-3.2544,3.25,3.5957,3.5996-2.2417,1.6797-3.3159-3.3184-5.4531,5.4463c-.6177.6182-.9165,1.2021-.8945,1.7559.021.5527.3184,1.1162.8926,1.6904l1.874,1.877-2.0049,2.002-2.1099-2.1123Z"/><path class="cls-2" d="m160.1675,837.751c-3.2114-2.8984-4.2285-5.9092-3.0513-9.0322l3.1924.8281c-.3765,1.083-.4175,2.1133-.1221,3.0908.2939.9766.9536,1.9287,1.9795,2.8535l.2715.2451c1.0854.9795,2.0957,1.543,3.0308,1.6895s1.7358-.1504,2.4028-.8887l.2246-.249c.5581-.6182.8286-1.2979.812-2.0371s-.3765-1.5234-1.0801-2.3496l-2.3008-2.8164c-2.5566-3.0186-2.7119-5.7715-.4668-8.2588l.2451-.2715c.8027-.8896,1.7378-1.4482,2.8047-1.6748,1.0669-.2275,2.1895-.1377,3.3682.2686,1.1787.4082,2.333,1.1211,3.4644,2.1416l.3164.2861c1.4019,1.2656,2.3379,2.623,2.8076,4.0732s.4326,2.9014-.1108,4.3525l-3.1401-1.0684c.7256-1.835.1987-3.5557-1.5801-5.1611l-.271-.2451c-.9648-.8711-1.9038-1.3623-2.8154-1.4736s-1.6602.1572-2.2451.8057l-.2451.2705c-1.0068,1.1162-.8579,2.4814.4473,4.0977l2.3223,2.793c1.2998,1.5303,1.9585,3.0205,1.9756,4.4717s-.5391,2.8037-1.6685,4.0547l-.2451.2715c-1.293,1.4326-2.8164,2.082-4.5703,1.9492-1.7544-.1328-3.5664-1.043-5.4351-2.7314l-.3174-.2852Z"/><path class="cls-2" d="m174.3843,850.0801c-1.7451-1.459-2.7026-3.125-2.8696-4.998-.168-1.874.5425-3.7617,2.1313-5.6641l.645-.7715c1.042-1.2461,2.168-2.1113,3.3799-2.5947,1.2109-.4834,2.4399-.6006,3.688-.3525,1.248.25,2.4336.8438,3.5557,1.7803l.2334.1963c1.1064.9238,1.8237,1.9736,2.1528,3.1484.3286,1.1738.2998,2.3418-.0864,3.5l-2.8193-.8066c.1694-.6777.1763-1.3281.0205-1.9492-.1562-.6191-.5312-1.1777-1.1235-1.6719l-.21-.1768c-.9194-.7686-1.9263-1.0928-3.0181-.9736-1.0923.1191-2.1465.7871-3.1621,2.0039l-.7227.8643c-1.0552,1.2627-1.5469,2.4268-1.4722,3.4951.0737,1.0674.5864,1.998,1.5371,2.793l.2109.1758c.623.5215,1.2588.8213,1.9077.8994.6484.0791,1.2852-.0166,1.9097-.29l1.1313,2.7324c-.9941.4932-2.0967.6562-3.3081.4912-1.2119-.166-2.3711-.7109-3.4771-1.6357l-.2344-.1953Z"/><path class="cls-2" d="m185.4956,859.0605c-1.3149-1.0215-2.0815-2.1367-2.2983-3.3477-.2173-1.21.1284-2.4004,1.0381-3.5723.7852-1.0098,1.7427-1.5898,2.875-1.7383,1.1318-.1504,2.3696.168,3.7134.9541l4.8037,2.8057.0752-.0967c1.4199-1.8291,1.3125-3.3779-.3237-4.6494l-.2651-.2051c-.6899-.5361-1.3599-.8564-2.0098-.9629-.6509-.1064-1.3506.0254-2.1001.3945l-1.2227-2.6475c1.0288-.5635,2.1543-.7627,3.377-.5986,1.2222.165,2.4346.7148,3.6377,1.6484l.3608.2812c1.6362,1.2705,2.5576,2.6484,2.7666,4.1348.2085,1.4873-.3032,3.0234-1.5366,4.6113l-6.0552,7.7969-2.334-1.8135,1.458-1.876c-.8931.3867-1.8525.4961-2.8789.3291-1.0269-.168-1.998-.6064-2.9121-1.3174l-.1689-.1309Zm8.6929-3.0459l-3.6455-2.0605c-.9224-.5361-1.647-.8018-2.1748-.8018-.5283.002-1.0044.2754-1.4272.8203-.4238.5449-.5684,1.1211-.4346,1.7266s.5459,1.1758,1.2354,1.7109l.2407.1875c.9463.7354,1.9268,1.0273,2.9443.8789,1.0156-.1504,1.9038-.7129,2.6641-1.6914l.5977-.7705Z"/><path class="cls-2" d="m196.0474,866.5967l13.166-17.9248,2.7012,1.9844-13.1665,17.9238-2.7007-1.9834Z"/><path class="cls-2" d="m207.5977,875.3555c-1.8691-1.2969-2.9458-2.8535-3.23-4.6699-.2847-1.8164.2734-3.7344,1.6743-5.7539l.5737-.8262c1.3774-1.9844,2.9912-3.1709,4.8403-3.5557,1.8496-.3857,3.6841.0527,5.5034,1.3154l.2246.1562c1.7354,1.2031,2.7314,2.6992,2.9893,4.4844.2559,1.7852-.252,3.5947-1.5254,5.4297l-1.0591,1.5273-9.0869-6.3047c-.8179,1.2861-1.1621,2.4316-1.0312,3.4375.1299,1.0059.688,1.8496,1.6729,2.5332l.3755.2598c.751.5215,1.4614.8232,2.1338.9062.6714.082,1.3369-.0293,1.9966-.3389l1.0996,2.6904c-.9834.4551-2.063.6035-3.2368.4434-1.1748-.1602-2.3545-.6514-3.5391-1.4736l-.3755-.2607Zm2.2671-10.1074l6.3823,4.4297.1216-.1758c.7178-1.0352,1.0029-2.0049.853-2.9121-.1494-.9072-.6909-1.6855-1.6255-2.334l-.2007-.1387c-.9175-.6367-1.853-.8652-2.8052-.6855-.9531.1797-1.8613.7852-2.7256,1.8164Z"/><path class="cls-2" d="m43.9116,285.9203c-10.8909,24.3048-19.8489,49.4451-26.5542,75.2251-6.8526,26.3459-11.3898,53.3004-13.6733,80.4252-2.3002,27.3232-2.2444,54.8508.1692,82.1643,2.3835,26.9729,6.9905,53.7642,13.8932,79.9496,6.7541,25.6221,15.7201,50.6323,26.632,74.7757,1.3222,2.9256,2.6762,5.8365,4.0559,8.7354,1.2626,2.6528,5.0608,3.3453,7.4434,1.9517,2.7142-1.5875,3.219-4.7807,1.9517-7.4434-11.001-23.1142-20.0527-47.1259-27.0926-71.8067-7.1387-25.0273-12.2398-50.7345-15.0507-76.5142-2.9426-26.9873-3.5659-54.2301-1.8875-81.3249,1.6322-26.348,5.495-52.3932,11.5855-78.0998,5.9557-25.1373,14.0132-49.9394,24.0432-73.6613,1.2585-2.9765,2.5579-5.9358,3.8793-8.8849,1.2006-2.6794.7747-5.8488-1.9517-7.4434-2.3244-1.3596-6.236-.7429-7.4434,1.9517h0Z"/><polygon class="cls-2" points="34.6801 282.0829 58.727 297.8865 60.3939 269.1596 34.6801 282.0829"/><path class="cls-2" d="m33.0325,284.9014c8.0157,5.2679,16.0313,10.5358,24.047,15.8036,2.1925,1.4409,4.7769-.4946,4.9117-2.8185.5556-9.5756,1.1113-19.1513,1.6669-28.7269.1525-2.6279-2.8445-3.8575-4.9117-2.8185-8.5713,4.3078-17.1426,8.6155-25.7139,12.9233-3.7545,1.887-.4528,7.5206,3.295,5.6371,8.5713-4.3078,17.1426-8.6155,25.7139-12.9233l-4.9117-2.8185c-.5556,9.5756-1.1113,19.1513-1.6669,28.7269,1.6372-.9395,3.2745-1.879,4.9117-2.8185-8.0157-5.2679-16.0313-10.5358-24.047-15.8036-3.5212-2.3141-6.7954,3.3366-3.295,5.6371Z"/><path class="cls-2" d="m634.293,911.5787c-22.5365,8.2084-45.6826,14.7078-69.2074,19.3878-23.9421,4.763-47.7044,7.5401-72.23,8.4981-24.5744.9599-49.2277.0274-73.6577-2.803-5.9447-.6887-11.0571-1.3841-17.0501-2.3196-5.8926-.9199-11.7678-1.9515-17.6212-3.0946-11.605-2.2665-23.1245-4.9713-34.525-8.1083-11.2887-3.1062-22.4608-6.6362-33.4848-10.5801-10.9888-3.9313-21.5394-8.1539-31.9094-12.7848-2.5923-1.1576-5.1731-2.3403-7.7447-3.5431-2.6598-1.244-5.8656-.7459-7.4434,1.9517-1.3791,2.3578-.7218,6.193,1.9517,7.4434,21.5094,10.0601,43.7357,18.591,66.4984,25.3601,23.0463,6.8535,46.6196,11.9247,70.4428,15.1716,24.7485,3.373,49.7047,4.9278,74.682,4.4698,25.216-.4623,50.3993-2.9404,75.2329-7.3369,23.8885-4.2292,47.4448-10.3138,70.3917-18.1871,2.8654-.9831,5.7203-1.9963,8.5667-3.0331,2.7594-1.005,4.6232-3.6958,3.7997-6.6923-.7314-2.6613-3.918-4.8102-6.6923-3.7997h0Z"/></svg>